<?xml version="1.0" standalone="no"?>
<!DOCTYPE svg PUBLIC "-//W3C//DTD SVG 20010904//EN"
 "http://www.w3.org/TR/2001/REC-SVG-20010904/DTD/svg10.dtd">
<svg version="1.0" xmlns="http://www.w3.org/2000/svg"
 width="1024.000000pt" height="1024.000000pt" viewBox="0 0 1024.000000 1024.000000"
 preserveAspectRatio="xMidYMid meet">

<g transform="translate(0.000000,1024.000000) scale(0.100000,-0.100000)"
fill="#000000" stroke="none">
<path d="M0 5120 l0 -5120 5120 0 5120 0 0 5120 0 5120 -5120 0 -5120 0 0
-5120z m2625 3719 c22 -41 11 -36 -14 7 -12 19 -16 32 -11 29 6 -3 17 -19 25
-36z m0 -48 c14 -28 23 -56 22 -63 -2 -7 -2 -10 0 -5 3 4 10 4 16 0 6 -4 8 -1
5 8 -19 45 -17 49 6 11 14 -23 40 -63 57 -87 l32 -45 223 0 223 0 21 -32 22
-33 -24 28 -24 27 -221 0 -221 0 -38 53 c-48 67 -54 74 -54 60 0 -26 85 -136
115 -149 62 -25 111 -157 122 -326 3 -54 9 -98 13 -98 10 0 1 119 -15 200 -7
36 -12 66 -10 68 1 1 13 -18 26 -42 13 -25 25 -43 27 -41 2 2 -2 14 -9 27
l-12 23 26 -24 c14 -12 37 -53 50 -90 39 -103 40 -110 8 -51 -38 70 -39 60 -2
-20 19 -41 31 -55 33 -43 6 27 33 -18 78 -130 21 -50 45 -109 54 -129 9 -21
14 -38 10 -38 -3 0 -32 56 -65 125 -60 126 -80 158 -54 86 33 -96 128 -251
231 -378 14 -17 32 -60 40 -94 19 -82 44 -120 107 -166 76 -55 89 -68 113
-120 22 -45 23 -70 3 -58 -5 4 -9 1 -9 -4 0 -24 -19 -9 -30 23 -11 35 -33 59
-63 69 -14 5 -10 -3 12 -30 16 -20 28 -41 24 -46 -3 -5 7 -22 23 -38 18 -19
30 -25 35 -18 9 15 41 -32 44 -65 4 -30 33 -86 45 -86 6 0 10 -4 10 -10 0 -18
-15 -11 -53 24 -30 28 -37 39 -32 59 4 14 2 28 -4 31 -7 5 -8 1 -4 -10 12 -31
-14 -6 -27 27 -13 30 -27 48 -100 126 -57 61 -96 114 -124 171 -28 55 -42 70
-26 26 21 -53 93 -165 148 -227 72 -81 126 -157 113 -157 -5 0 -13 5 -16 10
-3 6 -15 10 -25 10 -11 0 -39 9 -62 19 -89 39 -124 52 -155 54 -18 1 -33 5
-33 8 0 4 -11 10 -24 13 -13 3 -42 26 -64 51 -41 47 -65 105 -77 188 -6 35
-11 47 -21 43 -8 -3 -14 1 -14 10 0 8 5 12 10 9 21 -13 8 11 -37 69 -26 34
-48 63 -50 65 -2 2 -5 2 -8 -1 -5 -5 38 -66 70 -99 20 -21 19 -35 -2 -18 -9 8
-14 10 -12 4 18 -40 33 -65 41 -65 4 0 8 -10 8 -21 0 -19 -2 -20 -17 -8 -17
13 -17 12 -2 -6 9 -11 20 -31 24 -45 4 -14 16 -42 27 -64 12 -23 15 -37 8 -34
-7 2 -29 36 -49 75 -20 40 -42 72 -49 72 -7 1 -18 12 -24 26 -6 14 -14 25 -18
25 -4 0 -6 10 -6 21 1 12 -6 24 -14 27 -13 5 -13 3 0 -13 9 -11 10 -16 3 -11
-22 12 -14 -14 15 -55 15 -21 32 -37 39 -35 6 3 13 -4 16 -15 5 -18 4 -18 -26
3 -18 12 -42 30 -54 41 -12 10 -27 17 -33 15 -6 -2 15 -23 47 -47 46 -34 66
-58 98 -119 39 -74 42 -77 120 -118 44 -23 96 -56 116 -73 43 -35 122 -166
140 -231 7 -25 17 -50 23 -55 6 -6 20 -26 30 -45 l19 -35 -21 19 c-12 11 -22
25 -22 33 0 7 -5 13 -11 13 -14 0 19 -55 58 -93 18 -18 32 -39 32 -47 0 -12
-2 -11 -10 3 -5 9 -14 17 -19 17 -5 0 4 -21 21 -47 16 -27 39 -79 50 -118 12
-38 28 -78 36 -87 18 -20 180 -104 266 -138 51 -20 65 -32 110 -94 69 -95 107
-151 107 -159 0 -11 99 -153 120 -172 27 -24 35 -14 10 12 -10 12 -17 23 -14
26 9 9 -43 114 -60 120 -9 4 -16 2 -16 -2 0 -5 5 -11 12 -13 6 -2 9 -10 7 -16
-2 -7 -13 1 -23 19 -10 18 -14 29 -7 25 16 -10 14 7 -5 30 -15 19 -16 19 -9
-1 8 -26 -3 -13 -44 48 -17 27 -28 54 -25 60 4 7 3 9 -1 4 -10 -9 -45 21 -45
39 0 22 -76 79 -132 99 -67 24 -119 53 -138 79 -8 11 -38 63 -66 116 -28 53
-72 123 -98 156 -80 102 -89 128 -84 254 2 62 8 114 14 120 17 17 85 -5 116
-37 35 -38 89 -139 133 -252 21 -51 52 -120 71 -151 19 -32 34 -64 34 -71 0
-17 45 -81 96 -137 23 -25 41 -50 40 -56 -2 -6 -1 -8 1 -3 3 4 10 4 16 0 13
-7 -4 17 -37 55 -11 12 -15 22 -9 22 15 0 104 -99 102 -114 -3 -25 2 -36 15
-36 8 0 26 -22 40 -50 29 -56 31 -64 14 -54 -9 5 -9 2 1 -9 14 -18 26 -23 17
-8 -4 5 0 11 6 14 7 3 25 -9 40 -27 15 -17 28 -26 28 -21 0 6 -20 33 -45 60
-45 50 -60 79 -27 54 15 -13 16 -12 3 4 -8 9 -16 15 -19 12 -5 -5 -52 58 -52
71 0 16 83 -74 102 -111 47 -91 101 -156 183 -221 46 -37 82 -71 79 -76 -3 -5
-1 -7 4 -6 5 2 39 -20 74 -48 64 -52 129 -122 182 -199 l28 -40 -39 43 c-21
23 -42 42 -47 42 -5 0 -19 11 -32 26 -13 14 -24 21 -24 15 0 -5 5 -13 11 -16
6 -4 8 -14 5 -22 -3 -8 -2 -12 3 -9 4 3 27 -15 50 -39 23 -25 46 -45 52 -45 5
0 9 -5 9 -11 0 -6 -9 -8 -22 -4 -20 5 -21 4 -8 -7 8 -7 15 -23 16 -36 1 -21 0
-21 -16 -4 -10 10 -23 28 -29 40 -6 12 -18 22 -26 22 -8 0 -15 2 -15 4 0 2 -3
11 -6 20 -4 10 -1 16 10 16 29 0 5 25 -46 48 -62 27 -71 24 -21 -9 20 -13 39
-31 41 -39 3 -10 -4 -7 -20 8 -24 22 -54 22 -69 0 -5 -7 -46 24 -115 89 -13
12 -24 27 -24 33 0 6 26 -14 57 -44 32 -31 61 -56 65 -56 5 0 8 12 8 28 0 21
-2 24 -10 12 -8 -13 -10 -13 -10 2 0 16 -33 42 -41 33 -3 -2 -22 12 -44 31
-39 33 -65 43 -65 25 0 -17 -35 -18 -54 -2 -16 13 -18 14 -11 1 19 -34 28 -42
36 -29 6 10 11 10 23 -1 9 -7 19 -10 23 -6 3 3 1 6 -5 6 -7 0 -12 5 -12 12 0
6 8 3 20 -7 20 -18 18 -40 -3 -30 -7 3 -3 0 7 -7 11 -7 27 -20 36 -29 9 -8 20
-14 26 -12 5 1 14 -8 20 -22 11 -23 11 -24 -10 -14 -11 7 -29 18 -38 27 -10 8
-18 11 -18 5 0 -6 18 -25 40 -44 22 -19 40 -38 40 -43 0 -15 -85 67 -93 91 -5
13 -20 26 -33 29 -13 3 -21 10 -18 15 3 5 1 9 -5 9 -6 0 -24 14 -42 31 -48 47
-47 26 1 -25 23 -24 48 -42 55 -39 8 2 18 -5 25 -16 6 -12 9 -21 6 -21 -12 0
-56 24 -56 31 0 4 -12 10 -26 13 -15 4 -24 10 -20 13 8 8 -13 33 -28 33 -6 0
-4 -4 4 -10 8 -5 11 -12 7 -16 -10 -11 -44 24 -51 52 -4 13 -12 24 -19 24 -18
0 -45 35 -44 57 1 11 -5 18 -16 18 -10 0 -22 7 -27 15 -8 13 -10 12 -10 -3 0
-10 24 -42 53 -72 30 -30 51 -55 49 -55 -3 0 3 -10 14 -22 23 -26 5 -17 -49
25 -20 16 -35 32 -32 36 2 5 -10 21 -27 37 -18 16 -26 21 -19 11 8 -9 11 -20
8 -23 -6 -6 -112 128 -134 171 -9 16 -29 73 -44 125 -16 56 -28 83 -28 67 -1
-16 7 -54 16 -85 9 -32 16 -61 15 -65 -3 -11 52 -95 131 -201 37 -48 64 -92
61 -97 -3 -5 0 -8 8 -7 7 2 12 -3 10 -10 -1 -8 2 -11 7 -7 6 3 18 -6 27 -20 9
-14 26 -25 38 -25 11 0 28 -5 36 -11 13 -9 12 -10 -2 -5 -28 9 -23 -3 25 -55
9 -10 14 -19 10 -19 -13 1 -63 48 -63 60 0 5 -4 10 -8 10 -5 0 -18 9 -31 21
-12 12 -25 18 -28 15 -3 -3 23 -33 57 -67 48 -47 59 -63 49 -70 -14 -8 -12
-10 12 -13 6 0 27 -25 45 -54 31 -47 32 -52 12 -40 -13 6 -31 11 -40 9 -19 -2
-24 14 -8 24 14 8 -6 45 -25 45 -7 0 -17 14 -20 31 -5 20 -10 27 -15 19 -5 -8
-15 -1 -31 22 -12 18 -42 56 -64 83 -23 28 -52 69 -65 92 -13 24 -25 41 -27
39 -7 -7 44 -100 79 -147 45 -59 51 -69 40 -69 -6 0 -31 28 -57 63 -26 34 -44
53 -40 42 4 -11 9 -27 12 -37 3 -9 15 -19 26 -22 19 -5 20 -8 7 -16 -13 -9
-10 -15 15 -36 17 -15 24 -23 18 -20 -21 12 -15 -4 23 -56 19 -28 33 -52 30
-55 -6 -7 -126 176 -157 240 -22 46 -39 60 -39 34 0 -7 6 -19 13 -27 9 -11 8
-11 -7 0 -18 14 -19 13 -13 -3 4 -11 3 -16 -4 -12 -5 4 -7 15 -4 26 4 10 2 19
-3 19 -8 0 -32 43 -32 58 0 4 8 -2 17 -13 14 -18 15 -18 9 -2 -3 10 -6 23 -6
29 0 6 -6 8 -14 5 -9 -4 -15 5 -19 27 -3 18 -12 49 -21 69 -14 34 -18 37 -54
37 -55 0 -92 44 -127 152 -41 124 -58 152 -127 204 -35 26 -80 63 -100 81 -21
18 -44 30 -52 27 -14 -5 -29 10 -32 33 -3 19 -45 83 -54 83 -22 0 -51 74 -65
166 -17 112 -22 120 -111 154 -127 47 -144 70 -144 191 l0 72 -65 68 c-69 71
-83 109 -42 109 20 1 20 2 4 11 -10 6 -28 9 -40 7 -15 -2 -30 7 -49 30 -30 37
-64 119 -54 129 3 3 6 1 6 -5 0 -7 9 -12 20 -12 17 0 19 3 10 19 -6 12 -17 17
-28 14 -20 -5 -31 24 -74 202 -19 78 -37 312 -41 550 -2 86 -5 104 -25 132
-61 85 -75 172 -52 309 10 60 30 134 36 134 2 0 15 -22 29 -49z m-96 -16 c-17
-24 -43 -54 -57 -67 -13 -13 -1 7 29 45 60 76 76 89 28 22z m4726 -100 c9 -19
23 -39 29 -45 12 -9 441 -17 1177 -19 l266 -1 11 -25 c12 -26 19 -222 8 -232
-3 -4 -6 43 -6 103 0 73 -4 116 -12 127 -12 16 -69 17 -727 17 -393 0 -716 -1
-718 -3 -2 -2 37 -46 87 -96 49 -51 90 -96 90 -101 0 -5 26 -27 58 -49 59 -40
94 -75 85 -84 -3 -3 0 -14 7 -24 9 -16 10 -15 4 7 -6 25 -6 24 27 -6 35 -32
97 -69 105 -61 2 2 -14 12 -37 22 -22 11 -62 42 -87 71 -26 28 -66 63 -89 77
-23 15 -54 43 -70 64 -15 21 -52 60 -80 88 -29 28 -53 54 -53 59 0 5 153 6
363 3 199 -4 505 -7 680 -7 l317 0 0 -65 0 -65 -37 0 c-63 0 -171 -28 -226
-57 -116 -62 -197 -180 -217 -318 -5 -38 -10 -259 -10 -490 -1 -272 -5 -412
-11 -397 -5 13 -6 28 -3 33 7 12 -15 41 -26 34 -5 -3 -11 3 -14 12 -3 10 -62
70 -131 133 -69 63 -157 144 -195 179 -57 53 -70 60 -70 43 0 -13 18 -35 48
-58 26 -21 51 -41 56 -45 13 -11 45 -160 32 -152 -59 34 -128 88 -147 114 -15
21 -24 27 -29 19 -5 -9 -9 -9 -14 -1 -4 6 -2 11 3 11 13 0 15 54 2 78 -15 30
-21 92 -8 89 7 -1 10 11 8 33 -4 42 -9 52 -22 44 -6 -3 -9 0 -8 7 6 33 -15
121 -34 146 l-21 27 -7 -25 c-10 -36 -10 -160 0 -196 9 -31 9 -31 -21 -22 -16
4 -35 12 -41 17 -7 5 -39 24 -72 42 -75 42 -86 54 -143 170 -65 131 -81 151
-151 184 -80 39 -83 48 -64 217 8 74 15 159 16 191 1 31 5 54 8 52 14 -8 27
23 31 76 5 54 5 54 -9 23 -15 -38 -27 -45 -13 -8 31 82 77 100 105 40z m-4815
11 c0 -2 -8 -10 -17 -17 -16 -13 -17 -12 -4 4 13 16 21 21 21 13z m-49 -92
c-6 -17 -10 -22 -10 -10 -1 17 -18 18 -451 15 -247 -2 -442 -1 -432 3 9 4 214
7 455 7 326 1 437 4 437 13 0 6 2 9 5 7 2 -3 0 -18 -4 -35z m4712 -1 c-18 -2
-48 -2 -65 0 -18 2 -4 4 32 4 36 0 50 -2 33 -4z m-5636 -200 c-2 -38 -3 -7 -3
67 0 74 1 105 3 68 2 -38 2 -98 0 -135z m5532 165 c-19 -36 -81 -128 -87 -128
-2 0 4 12 14 28 10 15 31 48 47 75 31 48 47 64 26 25z m-3598 -303 c109 -165
239 -365 290 -445 51 -80 167 -260 259 -400 92 -140 223 -340 290 -445 68
-104 200 -307 293 -450 164 -252 232 -356 397 -612 44 -68 77 -123 74 -123
-10 0 -61 29 -120 68 -115 76 -189 112 -230 112 -23 0 -49 8 -64 20 -45 35
-43 21 3 -22 30 -29 50 -59 60 -90 15 -45 15 -47 -2 -36 -21 13 -23 16 -108
162 -35 60 -80 128 -101 150 -21 23 -46 55 -56 71 -10 17 -45 46 -79 65 -156
90 -254 228 -312 443 -16 61 -24 73 -73 115 -40 34 -65 68 -98 131 -24 48 -58
109 -74 137 -20 33 -36 82 -46 135 -26 141 -71 186 -170 176 -47 -5 -58 -2
-92 23 -51 37 -76 80 -95 163 -12 54 -25 79 -62 124 -47 58 -93 147 -147 288
-17 44 -46 103 -64 131 -18 27 -44 79 -56 114 -16 42 -40 82 -75 122 -29 32
-62 78 -74 101 -12 23 -28 50 -37 60 -15 17 -7 17 178 15 l194 -3 197 -300z
m3719 301 c0 -2 -16 -6 -35 -8 -19 -2 -35 0 -35 4 0 4 16 8 35 8 19 0 35 -2
35 -4z m-4740 -12 c0 -3 -17 -26 -39 -52 -41 -50 -56 -86 -66 -167 -9 -76 -24
-115 -63 -170 -20 -27 -66 -105 -103 -173 l-66 -123 -6 103 c-13 202 -82 338
-212 414 -53 31 -183 64 -252 64 l-53 0 0 55 0 55 430 0 c237 0 430 -3 430 -6z
m4667 -56 c-3 -8 -6 -5 -6 6 -1 11 2 17 5 13 3 -3 4 -12 1 -19z m-3702 -82
l17 -31 -20 24 c-11 14 -27 38 -37 55 l-17 31 20 -24 c11 -14 27 -38 37 -55z
m3555 -6 c-6 -11 -13 -20 -16 -20 -2 0 0 9 6 20 6 11 13 20 16 20 2 0 0 -9 -6
-20z m-3496 -87 c20 -32 27 -46 14 -31 -26 30 -62 88 -55 88 2 0 21 -26 41
-57z m3660 31 c3 -8 2 -12 -4 -9 -6 3 -10 10 -10 16 0 14 7 11 14 -7z m-213
-21 c-5 -10 -17 -27 -26 -38 -16 -19 -17 -19 -3 5 26 46 29 50 34 50 3 0 0 -8
-5 -17z m1889 -28 c-7 -8 -20 -15 -29 -15 -11 0 -8 5 9 14 33 19 35 19 20 1z
m-7197 -12 c-7 -2 -21 -2 -30 0 -10 3 -4 5 12 5 17 0 24 -2 18 -5z m104 -19
c-3 -3 -12 -4 -19 -1 -8 3 -5 6 6 6 11 1 17 -2 13 -5z m5153 -30 c0 -3 -28
-33 -61 -66 -34 -33 -58 -54 -54 -47 7 12 105 115 113 118 1 1 2 -2 2 -5z
m-5059 -21 c13 -16 12 -17 -3 -4 -17 13 -22 21 -14 21 2 0 10 -8 17 -17z
m1752 -32 c27 -46 14 -38 -18 12 -16 23 -22 37 -14 30 8 -6 22 -25 32 -42z
m5036 45 c-2 -2 -15 -9 -29 -15 -24 -11 -24 -11 -6 3 16 13 49 24 35 12z
m-6733 -58 l29 -33 -32 29 c-18 17 -33 31 -33 33 0 8 8 1 36 -29z m6634 -13
c-24 -25 -46 -45 -49 -45 -3 0 15 20 39 45 24 25 46 45 49 45 3 0 -15 -20 -39
-45z m-4885 -56 c22 -41 11 -36 -14 7 -12 19 -16 32 -11 29 6 -3 17 -19 25
-36z m-1687 -24 c-3 -3 -9 2 -12 12 -6 14 -5 15 5 6 7 -7 10 -15 7 -18z m4806
-3 c-9 -16 -25 -39 -36 -53 l-20 -24 16 28 c28 48 48 77 53 77 2 0 -3 -13 -13
-28z m1706 8 c-6 -11 -13 -20 -16 -20 -2 0 0 9 6 20 6 11 13 20 16 20 2 0 0
-9 -6 -20z m-30 -90 c-7 -52 -7 -53 -9 -13 -1 36 7 80 14 71 1 -2 -1 -28 -5
-58z m-6463 3 c-3 -10 -5 -4 -5 12 0 17 2 24 5 18 2 -7 2 -21 0 -30z m5403
-44 c17 -45 43 -104 58 -133 33 -62 142 -176 197 -204 22 -11 64 -47 93 -81
34 -39 94 -87 166 -136 l113 -74 38 -83 c42 -93 102 -170 167 -213 90 -61 88
-57 87 -223 -1 -95 -4 -129 -8 -95 -7 57 -29 88 -77 108 -18 7 -50 37 -72 67
-45 62 -141 152 -184 174 l-30 16 18 -31 c10 -17 22 -31 27 -31 4 0 5 -5 2
-10 -4 -6 -12 -4 -22 6 -19 18 -55 86 -42 78 26 -16 -1 16 -88 103 -54 54 -88
85 -77 68 10 -16 33 -56 49 -88 17 -32 45 -72 64 -90 33 -31 31 -22 -6 33
l-17 25 22 -20 c23 -22 101 -175 122 -240 7 -22 21 -51 30 -65 9 -14 23 -36
29 -50 12 -24 11 -24 -4 -5 -8 11 -37 42 -63 68 -58 61 -102 86 -52 31 19 -21
26 -31 14 -21 -32 26 -40 20 -13 -10 l24 -26 -27 19 c-15 10 -28 25 -28 32 0
7 -14 26 -30 42 -17 17 -27 30 -24 30 4 0 -3 11 -15 24 -12 13 -23 30 -25 37
-1 8 -5 20 -10 27 -4 7 -5 20 -2 28 3 9 -2 29 -11 45 -20 33 -40 40 -23 8 23
-42 1 -28 -29 20 -18 27 -39 52 -48 55 -8 4 -1 -10 16 -30 33 -37 74 -118 85
-164 3 -14 50 -71 105 -128 54 -57 101 -109 104 -116 3 -7 25 -28 49 -45 28
-22 33 -24 15 -7 -43 40 -17 31 56 -19 37 -25 69 -45 71 -45 3 0 33 -21 66
-46 l60 -45 0 -101 0 -100 -36 36 c-20 20 -41 36 -47 36 -7 0 -7 -4 1 -12 22
-22 12 -32 -10 -11 -13 11 -43 33 -68 48 -54 33 -203 183 -226 226 -8 17 -18
28 -21 25 -3 -3 -18 2 -32 12 -14 9 -35 22 -46 28 -11 6 -25 25 -30 41 -6 17
-28 50 -50 74 -53 57 -165 219 -199 287 l-27 53 -89 -82 c-79 -74 -92 -90
-120 -158 -16 -42 -41 -98 -54 -126 l-23 -50 -16 35 c-8 19 -40 66 -71 105
-31 38 -56 73 -56 77 0 5 -96 66 -147 93 -2 1 6 23 16 51 10 27 25 76 32 109
9 45 14 54 18 37 11 -41 58 -87 125 -121 37 -19 69 -31 72 -28 7 7 -21 52 -62
99 -22 25 -35 51 -39 83 -7 45 -6 57 15 160 6 28 10 88 10 135 -1 58 5 104 19
145 l19 60 12 -30 c56 -136 105 -204 158 -220 l23 -7 -17 34 c-23 44 -26 312
-4 406 8 34 15 62 16 62 2 0 17 -36 34 -81z m-3647 12 c27 -46 14 -38 -18 12
-16 23 -22 37 -14 30 8 -6 22 -25 32 -42z m2961 1 c-9 -16 -25 -39 -36 -53
l-20 -24 16 28 c28 48 48 77 53 77 2 0 -3 -13 -13 -28z m-4707 -1984 c-1 -365
-2 -69 -2 657 0 726 1 1024 2 663 2 -361 2 -955 0 -1320z m1793 1911 c15 -28
5 -23 -15 7 -9 15 -12 23 -6 20 6 -4 16 -16 21 -27z m2831 -58 c-6 -10 -26
-38 -46 -61 -20 -24 -45 -61 -56 -82 -11 -21 -22 -38 -24 -38 -11 0 35 78 70
120 20 23 40 51 46 61 5 11 12 19 15 19 2 0 0 -8 -5 -19z m1132 -11 c3 -11 2
-18 -3 -15 -4 3 -10 14 -13 25 -3 11 -2 18 3 15 4 -3 10 -14 13 -25z m-3892
-45 l10 -20 -16 20 c-9 11 -21 29 -26 40 l-10 20 16 -20 c9 -11 21 -29 26 -40z
m3899 -56 c0 -18 -4 -28 -10 -24 -5 3 -10 20 -10 36 0 18 4 28 10 24 6 -3 10
-20 10 -36z m-3798 -99 c72 -111 101 -160 95 -160 -4 0 -88 130 -151 233 -38
62 2 10 56 -73z m3348 -5 c0 -5 -5 -3 -10 5 -5 8 -10 20 -10 25 0 6 5 3 10 -5
5 -8 10 -19 10 -25z m-830 5 c-6 -11 -13 -20 -16 -20 -2 0 0 9 6 20 6 11 13
20 16 20 2 0 0 -9 -6 -20z m1245 -28 c-6 -6 -34 11 -39 24 -4 11 0 10 18 -3
13 -10 23 -19 21 -21z m39 2 c3 -8 2 -12 -4 -9 -6 3 -10 10 -10 16 0 14 7 11
14 -7z m-1319 -33 c-8 -17 -19 -33 -25 -36 -5 -3 -1 10 11 29 25 43 36 48 14
7z m1466 2 c13 -16 12 -17 -3 -4 -17 13 -22 21 -14 21 2 0 10 -8 17 -17z
m-1511 -73 c-6 -11 -13 -20 -16 -20 -2 0 0 9 6 20 6 11 13 20 16 20 2 0 0 -9
-6 -20z m-2319 -57 c13 -16 12 -17 -3 -4 -10 7 -18 15 -18 17 0 8 8 3 21 -13z
m4356 -25 c-3 -7 -5 -2 -5 12 0 14 2 19 5 13 2 -7 2 -19 0 -25z m-2087 2 c-6
-11 -13 -20 -16 -20 -2 0 0 9 6 20 6 11 13 20 16 20 2 0 0 -9 -6 -20z m-2623
-20 c38 -23 58 -59 67 -120 13 -80 37 -153 65 -194 16 -23 47 -80 70 -128 23
-49 45 -88 50 -88 4 0 29 -20 55 -44 42 -38 46 -47 44 -82 -1 -21 2 -50 6 -63
6 -16 5 -21 -3 -17 -6 4 -11 16 -11 28 0 13 -5 18 -14 15 -16 -6 -41 17 -32
31 9 16 -17 83 -30 78 -8 -3 -16 -1 -19 5 -4 5 -11 7 -16 4 -5 -4 -9 2 -9 11
0 16 1 16 20 -1 24 -22 27 -3 3 21 -9 9 -27 36 -40 59 -12 23 -49 70 -83 103
-43 44 -70 83 -96 139 -96 208 -114 243 -124 243 -6 0 -8 5 -5 10 10 17 68 11
102 -10z m435 -77 c43 -66 77 -123 65 -113 -5 5 -89 132 -111 168 -4 6 -5 12
-3 12 2 0 24 -30 49 -67z m2159 50 c-5 -10 -17 -27 -26 -38 -16 -19 -17 -19
-3 5 26 46 29 50 34 50 3 0 0 -8 -5 -17z m-3131 -49 c0 -3 -7 -1 -15 6 -8 7
-15 17 -15 22 0 5 7 3 15 -6 8 -8 15 -18 15 -22z m5006 -26 c28 -29 65 -80 83
-112 27 -51 31 -70 30 -130 l0 -71 -13 48 c-11 40 -26 60 -88 117 -59 55 -78
78 -88 113 -13 47 -7 87 14 87 6 0 35 -24 62 -52z m-1469 -55 c24 -27 65 -76
91 -110 50 -66 49 -65 162 -110 72 -28 77 -32 146 -124 40 -51 77 -109 82
-127 10 -31 7 -40 -32 -100 -23 -37 -55 -89 -70 -115 l-28 -49 -29 28 c-16 15
-48 52 -71 82 -24 30 -58 72 -76 93 -32 37 -103 77 -151 86 -45 8 -52 21 -52
97 1 103 -8 147 -36 185 -20 25 -28 30 -34 20 -12 -19 -12 -1 1 78 13 77 26
113 41 113 7 0 32 -21 56 -47z m-3467 27 c0 -5 -2 -10 -4 -10 -3 0 -8 5 -11
10 -3 6 -1 10 4 10 6 0 11 -4 11 -10z m5187 -22 c-3 -8 -6 -5 -6 6 -1 11 2 17
5 13 3 -3 4 -12 1 -19z m-5156 -15 c13 -16 12 -17 -3 -4 -10 7 -18 15 -18 17
0 8 8 3 21 -13z m422 -30 c9 -24 15 -43 12 -43 -9 0 -44 78 -38 84 8 7 6 10
26 -41z m2518 30 c-5 -10 -17 -27 -26 -38 -16 -19 -17 -19 -3 5 26 46 29 50
34 50 3 0 0 -8 -5 -17z m2216 -100 c-2 -16 -4 -3 -4 27 0 30 2 43 4 28 2 -16
2 -40 0 -55z m-4187 36 c15 -28 5 -23 -15 7 -9 15 -12 23 -6 20 6 -4 16 -16
21 -27z m1914 -24 c-9 -14 -18 -25 -21 -25 -5 0 5 18 20 38 17 22 18 13 1 -13z
m-1839 -89 c21 -32 33 -56 27 -52 -5 3 -28 36 -52 73 -23 38 -35 61 -27 53 8
-8 32 -41 52 -74z m-691 45 c4 -5 -3 -7 -14 -4 -23 6 -26 13 -6 13 8 0 17 -4
20 -9z m2497 -8 c-5 -10 -17 -27 -26 -38 -16 -19 -17 -19 -3 5 26 46 29 50 34
50 3 0 0 -8 -5 -17z m1391 -10 c48 -53 159 -223 192 -295 19 -40 46 -107 61
-149 20 -56 48 -105 105 -181 43 -57 90 -110 104 -118 35 -18 40 -45 22 -116
-9 -33 -17 -70 -19 -82 -2 -12 -10 -28 -17 -35 -12 -10 -12 -9 -1 6 9 11 10
17 2 17 -6 0 -11 7 -11 15 0 8 -4 15 -8 15 -4 0 -8 9 -8 19 0 24 14 17 26 -13
l9 -21 0 22 c1 28 -28 45 -52 31 -13 -7 -29 -4 -58 11 -22 12 -38 17 -34 11 3
-5 2 -10 -4 -10 -5 0 -12 4 -16 10 -3 5 -12 7 -20 4 -9 -4 -39 17 -77 53 -35
32 -86 78 -115 101 -28 24 -64 64 -79 90 -15 26 -42 65 -60 87 l-33 41 10 69
c6 39 13 85 16 104 4 33 5 33 19 12 8 -11 21 -21 27 -20 8 0 8 2 -1 6 -31 12
-43 63 -43 184 0 110 10 159 29 159 5 0 20 -12 34 -27z m915 -80 c-2 -21 -4
-6 -4 32 0 39 2 55 4 38 2 -18 2 -50 0 -70z m-4649 32 c-3 -3 -9 2 -12 12 -6
14 -5 15 5 6 7 -7 10 -15 7 -18z m20 -40 c-3 -3 -9 2 -12 12 -6 14 -5 15 5 6
7 -7 10 -15 7 -18z m66 -55 l31 -35 -37 34 c-21 19 -38 42 -37 50 0 14 1 14 6
1 3 -8 20 -31 37 -50z m2179 30 c-9 -17 -28 -43 -41 -58 -13 -15 -6 -1 14 31
38 59 58 79 27 27z m-1652 -35 l10 -20 -16 20 c-9 11 -21 29 -26 40 l-10 20
16 -20 c9 -11 21 -29 26 -40z m1967 26 c-12 -17 -31 -41 -41 -55 -12 -17 -27
-26 -45 -26 -50 0 -67 -11 -105 -65 -44 -64 -63 -76 -96 -64 -20 8 -23 14 -17
41 3 17 7 32 9 34 1 1 64 32 139 69 75 37 142 73 149 81 23 28 30 13 7 -15z
m1637 -3 l16 -33 -20 25 c-20 24 -26 40 -16 40 2 0 12 -15 20 -32z m-4447 -30
c11 -29 9 -49 -3 -36 -10 10 -24 68 -16 68 3 0 12 -14 19 -32z m277 -17 c54
-65 99 -136 152 -238 32 -62 62 -113 66 -113 5 0 6 8 3 17 -4 10 -3 14 1 9 4
-4 8 -26 8 -49 0 -35 4 -44 27 -54 26 -13 59 -60 73 -104 5 -16 -10 -4 -46 36
-30 32 -62 67 -71 77 -10 10 -18 23 -18 28 0 6 -7 22 -16 35 -9 13 -17 30 -18
37 -5 21 -25 68 -30 68 -3 0 -1 -14 4 -30 5 -17 10 -34 11 -38 5 -20 25 -60
42 -84 10 -16 14 -28 8 -28 -11 0 -61 72 -61 87 0 5 -21 44 -45 87 -25 44 -53
100 -61 125 -8 26 -29 76 -47 113 -32 65 -25 71 18 19z m-920 29 c-3 -5 -12
-10 -18 -10 -7 0 -6 4 3 10 19 12 23 12 15 0z m5135 -14 c0 -8 6 -16 14 -19 7
-3 14 -17 14 -31 0 -14 -5 -23 -10 -20 -5 3 -7 12 -4 19 2 7 -1 16 -8 18 -15
6 -28 47 -15 47 5 0 9 -6 9 -14z m-3585 -90 l17 -31 -20 24 c-11 14 -27 38
-37 55 l-17 31 20 -24 c11 -14 27 -38 37 -55z m-551 39 c-5 12 -4 16 4 11 9
-5 14 -56 5 -56 -1 0 -12 15 -24 33 l-23 32 23 -19 c21 -19 21 -19 15 -1z
m2067 -12 c-5 -10 -17 -27 -26 -38 -16 -19 -17 -19 -3 5 26 46 29 50 34 50 3
0 0 -8 -5 -17z m541 -65 c-6 -6 -7 0 -4 19 5 21 7 23 10 9 2 -10 0 -22 -6 -28z
m1518 22 c6 -11 8 -20 6 -20 -3 0 -10 9 -16 20 -6 11 -8 20 -6 20 3 0 10 -9
16 -20z m-285 -26 c11 -17 12 -25 4 -22 -6 2 -16 14 -20 26 -11 29 -5 28 16
-4z m374 -4 c11 -24 11 -24 -3 -6 -9 11 -16 24 -16 30 0 12 5 7 19 -24z m-149
-5 c13 -14 21 -25 18 -25 -2 0 -15 11 -28 25 -13 14 -21 25 -18 25 2 0 15 -11
28 -25z m111 8 c13 -16 12 -17 -3 -4 -10 7 -18 15 -18 17 0 8 8 3 21 -13z
m-3571 -39 c18 -25 30 -47 28 -49 -1 -2 -18 19 -36 46 -41 62 -34 65 8 3z
m1407 22 c-9 -13 -39 -60 -68 -105 -28 -45 -53 -81 -56 -81 -3 0 1 10 9 23 8
12 38 59 67 105 29 45 55 82 58 82 3 0 -2 -11 -10 -24z m-1942 -16 c3 -5 1
-10 -4 -10 -6 0 -11 5 -11 10 0 6 2 10 4 10 3 0 8 -4 11 -10z m2605 -10 c0 -5
-5 -10 -11 -10 -5 0 -7 5 -4 10 3 6 8 10 11 10 2 0 4 -4 4 -10z m1841 -36 c-7
-31 -9 -34 -10 -12 -1 27 9 62 15 55 3 -2 0 -22 -5 -43z m-1805 1 c-3 -8 -10
-15 -15 -15 -5 0 -4 11 2 25 12 25 23 16 13 -10z m1174 -42 c26 -85 20 -92
-10 -11 -12 35 -25 69 -28 77 -3 9 -1 12 6 7 6 -4 21 -37 32 -73z m-1305 26
c-4 -22 -14 -53 -22 -67 -15 -27 -15 -27 -8 -2 4 14 12 44 18 68 13 54 21 55
12 1z m32 -36 c-3 -10 -5 -2 -5 17 0 19 2 27 5 18 2 -10 2 -26 0 -35z m1677
31 c3 -8 2 -12 -4 -9 -6 3 -10 10 -10 16 0 14 7 11 14 -7z m-4144 -37 c0 -5
-4 -5 -10 -2 -5 3 -10 14 -10 23 0 15 2 15 10 2 5 -8 10 -19 10 -23z m520 3
c6 -11 8 -20 6 -20 -3 0 -10 9 -16 20 -6 11 -8 20 -6 20 3 0 10 -9 16 -20z
m2001 -17 c-12 -20 -14 -14 -5 12 4 9 9 14 11 11 3 -2 0 -13 -6 -23z m246 5
c-3 -8 -6 -5 -6 6 -1 11 2 17 5 13 3 -3 4 -12 1 -19z m1603 -983 c-4 -194 -6
-68 -6 355 0 492 2 567 6 300 3 -195 3 -490 0 -655z m-4730 975 c6 -11 8 -20
6 -20 -3 0 -10 9 -16 20 -6 11 -8 20 -6 20 3 0 10 -9 16 -20z m931 -65 l10
-20 -16 20 c-9 11 -21 29 -26 40 l-10 20 16 -20 c9 -11 21 -29 26 -40z m1915
-12 c-14 -26 -25 -44 -26 -39 0 13 43 97 47 92 3 -2 -7 -26 -21 -53z m1343 32
c2 18 27 -30 29 -54 1 -22 -1 -21 -24 12 -13 20 -24 44 -23 54 0 16 1 16 9 -2
5 -11 9 -16 9 -10z m-4160 -20 c22 -38 12 -49 -13 -13 -15 21 -21 48 -12 48 2
0 13 -16 25 -35z m3091 13 c0 -18 -2 -20 -9 -8 -6 8 -7 18 -5 22 9 14 14 9 14
-14z m-375 -53 c-8 -26 -12 -51 -9 -57 4 -6 2 -8 -3 -5 -6 4 -13 0 -16 -7 -3
-8 -1 -17 6 -19 9 -3 9 -9 0 -25 -20 -34 3 -35 27 -2 13 19 17 30 9 30 -7 0
-10 2 -7 5 3 3 12 3 20 0 13 -5 13 -12 3 -41 -9 -27 -28 -46 -79 -79 -37 -23
-76 -51 -87 -60 -29 -27 -23 -12 23 63 53 86 93 167 109 222 7 23 15 38 17 32
2 -6 -4 -32 -13 -57z m27 3 c-8 -8 -9 -4 -5 13 4 13 8 18 11 10 2 -7 -1 -18
-6 -23z m246 3 c-13 -15 -25 -27 -27 -25 -4 4 39 54 47 54 2 0 -7 -13 -20 -29z
m-81 -3 c-3 -8 -6 -5 -6 6 -1 11 2 17 5 13 3 -3 4 -12 1 -19z m1246 -15 c5
-26 4 -26 -9 -8 -15 21 -19 49 -5 41 5 -3 11 -18 14 -33z m-982 -65 l87 -92
-18 -36 c-22 -42 -140 -217 -140 -206 0 4 23 40 50 81 28 41 50 77 50 80 0 4
-21 29 -47 57 -27 27 -54 66 -61 86 -7 20 -24 48 -37 62 -23 24 -24 27 -8 43
10 9 22 17 27 17 5 0 49 -41 97 -92z m1069 62 c12 -23 12 -24 -3 -11 -10 7
-17 20 -17 29 0 18 3 16 20 -18z m-2222 -22 c-9 -13 -46 -70 -83 -128 -62 -96
-101 -149 -80 -110 19 35 168 260 172 260 3 0 -1 -10 -9 -22z m2237 -18 c3 -5
1 -10 -4 -10 -6 0 -11 5 -11 10 0 6 2 10 4 10 3 0 8 -4 11 -10z m-4183 -38
l21 -33 -39 26 c-48 32 -54 38 -30 29 14 -6 17 -4 11 6 -5 8 -3 11 4 9 7 -3
21 -19 33 -37z m972 -84 c31 -49 54 -88 51 -88 -4 0 -95 137 -119 180 -25 44
19 -15 68 -92z m1766 71 c-7 -11 -14 -19 -16 -16 -7 7 7 37 17 37 6 0 5 -9 -1
-21z m110 18 c0 -2 -10 -12 -22 -23 l-23 -19 19 23 c18 21 26 27 26 19z m-70
-61 c0 -2 -8 -10 -17 -17 -16 -13 -17 -12 -4 4 13 16 21 21 21 13z m-2310
-101 c0 -4 -16 12 -35 35 -19 23 -35 47 -35 52 0 6 16 -10 35 -35 19 -25 35
-49 35 -52z m3901 78 c13 -16 12 -17 -3 -4 -10 7 -18 15 -18 17 0 8 8 3 21
-13z m-3796 -67 c87 -57 98 -66 90 -74 -4 -4 -11 1 -17 11 -7 14 -13 16 -24 6
-7 -6 -11 -16 -7 -23 4 -6 -1 -4 -12 4 -17 14 -17 13 -11 -10 5 -18 4 -21 -3
-10 -5 9 -11 22 -13 29 -3 15 -6 18 -61 85 -17 22 -27 37 -22 34 6 -4 42 -27
80 -52z m2977 -33 c58 -61 191 -253 174 -253 -2 0 -18 23 -36 50 -18 28 -34
49 -37 47 -2 -3 14 -40 36 -83 40 -77 46 -106 15 -68 -15 17 -15 16 0 -8 9
-16 23 -39 32 -53 22 -34 1 -32 -26 3 -21 26 -21 25 1 -13 13 -22 29 -44 37
-49 10 -5 11 -11 4 -15 -7 -4 -8 -12 -2 -21 9 -13 10 -13 10 0 1 9 6 5 15 -10
55 -96 -65 0 -127 102 -10 15 -21 28 -24 28 -4 0 0 -8 7 -17 12 -15 12 -16 -3
-10 -22 8 -23 -6 -3 -23 9 -7 36 -52 62 -99 26 -47 53 -90 60 -94 7 -4 13 -13
13 -19 0 -6 8 -21 18 -32 17 -20 16 -20 -3 -6 -11 8 -24 21 -28 28 -11 16 -28
6 -20 -13 5 -16 0 -17 -54 -19 -17 -1 -29 2 -26 7 2 4 0 7 -5 7 -5 0 -15 11
-22 25 -7 14 -15 23 -17 21 -2 -1 3 -16 12 -32 21 -41 19 -50 -6 -28 -22 19
-22 19 -8 -3 8 -13 16 -23 19 -23 3 0 6 -9 7 -20 3 -31 -13 -24 -31 15 -17 35
-41 41 -29 7 6 -15 5 -16 -12 -2 -17 14 -18 13 -11 -25 l8 -40 -22 23 c-16 17
-32 22 -71 22 -40 0 -50 3 -46 14 25 64 28 103 16 178 -10 61 -10 98 -1 170 6
51 14 157 18 236 l6 142 27 0 c19 0 40 -14 73 -47z m717 -23 c4 -3 15 -21 24
-40 l17 -35 -25 30 -25 30 6 -35 c4 -19 11 -43 16 -52 5 -10 6 -18 4 -18 -16
0 -34 63 -33 115 0 33 2 49 5 35 2 -14 7 -27 11 -30z m67 -1 c8 -13 -21 1 -51
26 -19 15 -18 15 12 1 17 -9 35 -21 39 -27z m-3792 -33 c36 -61 33 -71 -4 -13
-16 26 -30 50 -30 52 0 13 11 1 34 -39z m526 4 c6 -11 8 -20 6 -20 -3 0 -10 9
-16 20 -6 11 -8 20 -6 20 3 0 10 -9 16 -20z m3280 -45 c0 -15 -18 -1 -34 28
l-18 32 26 -27 c14 -15 26 -30 26 -33z m-3625 -13 c46 -57 180 -282 168 -282
-8 0 -43 41 -43 51 0 5 -7 6 -15 3 -11 -5 -13 -2 -8 12 4 11 3 15 -5 11 -6 -4
-21 7 -33 25 -13 17 -18 28 -11 24 7 -4 12 -2 12 6 -1 17 -39 67 -40 51 0 -6
5 -15 10 -18 6 -3 10 -12 10 -18 -1 -7 -10 -1 -20 12 -21 25 -27 46 -10 36 6
-3 10 -1 10 6 0 8 4 8 15 -1 13 -11 14 -10 9 4 -4 10 -12 15 -19 12 -13 -5
-65 60 -65 81 0 7 -7 19 -16 27 -8 9 -11 16 -6 16 6 0 31 -26 57 -58z m1009
18 c-15 -22 -29 -40 -31 -40 -5 0 3 15 29 53 30 43 31 32 2 -13z m2377 0 c31
-25 12 -26 -21 0 -14 11 -20 20 -14 20 7 0 22 -9 35 -20z m-3000 -22 c8 -15 8
-18 0 -14 -6 4 -16 16 -22 28 -8 15 -8 18 0 14 6 -4 16 -16 22 -28z m1712 -13
c-3 -9 -8 -14 -10 -11 -3 3 -2 9 2 15 9 16 15 13 8 -4z m1502 5 c3 -5 2 -10
-4 -10 -5 0 -13 5 -16 10 -3 6 -2 10 4 10 5 0 13 -4 16 -10z m-2632 -32 c-39
-64 -129 -187 -108 -148 15 28 107 160 112 160 2 0 1 -6 -4 -12z m1307 -42 c0
-2 -8 -10 -17 -17 -16 -13 -17 -12 -4 4 13 16 21 21 21 13z m1185 -6 c-3 -5
-13 -10 -21 -10 -8 0 -14 5 -14 10 0 6 9 10 21 10 11 0 17 -4 14 -10z m-2964
-85 l10 -20 -16 20 c-9 11 -21 29 -26 40 l-10 20 16 -20 c9 -11 21 -29 26 -40z
m2959 45 c-8 -5 -24 -9 -35 -9 -16 1 -16 2 5 9 35 11 48 11 30 0z m108 -7 c9
-9 17 -27 17 -40 1 -25 -3 -27 -24 -14 -11 7 -10 11 5 19 16 9 16 11 -4 23
-12 8 -22 17 -22 21 0 13 10 9 28 -9z m209 -5 c-3 -8 -6 -5 -6 6 -1 11 2 17 5
13 3 -3 4 -12 1 -19z m-1567 -38 c-12 -16 -24 -30 -26 -30 -7 0 5 20 24 43 24
27 25 20 2 -13z m1451 13 c13 -16 12 -17 -3 -4 -10 7 -18 15 -18 17 0 8 8 3
21 -13z m-3640 -10 c13 -16 12 -17 -3 -4 -10 7 -18 15 -18 17 0 8 8 3 21 -13z
m2144 -3 c-3 -5 -12 -10 -18 -10 -7 0 -6 4 3 10 19 12 23 12 15 0z m1305 0 c0
-5 -4 -10 -10 -10 -5 0 -10 5 -10 10 0 6 5 10 10 10 6 0 10 -4 10 -10z m-3142
-47 c37 -21 105 -61 151 -90 47 -29 90 -53 96 -53 16 0 57 -45 48 -53 -3 -4
-16 1 -27 12 -12 10 -34 27 -51 36 -27 17 -25 14 12 -26 l42 -44 -24 -17 c-13
-10 -27 -18 -31 -18 -4 0 -27 -9 -50 -21 -57 -27 -111 -23 -132 11 l-16 25 25
-22 c14 -13 34 -23 45 -23 31 0 64 12 59 20 -3 5 4 6 15 3 12 -3 22 1 26 11 3
9 15 16 25 16 10 0 19 5 19 11 0 6 -6 9 -12 6 -7 -2 -24 2 -38 9 -29 14 -120
109 -120 124 0 5 -5 10 -10 10 -6 0 -4 -12 4 -29 9 -16 12 -32 8 -36 -4 -5 -2
-5 4 -2 13 7 54 -19 54 -35 0 -6 -9 -3 -19 6 -21 19 -35 8 -25 -19 4 -11 9
-13 14 -6 4 7 15 2 29 -13 22 -23 22 -26 7 -42 -24 -23 -63 -4 -81 39 -7 18
-25 42 -39 52 -14 11 -26 25 -26 31 0 10 -37 72 -82 137 l-19 27 27 0 c14 0
56 -17 92 -37z m242 -55 c26 -47 19 -51 -8 -5 -11 19 -27 47 -37 63 l-17 29
20 -25 c12 -14 31 -42 42 -62z m2887 57 c-4 -8 -13 -15 -22 -15 -13 0 -12 3 3
18 19 21 27 20 19 -3z m-2627 -30 c-17 -25 -33 -45 -36 -45 -3 0 9 20 26 45
17 25 33 45 36 45 3 0 -9 -20 -26 -45z m1517 13 c-3 -7 -5 -2 -5 12 0 14 2 19
5 13 2 -7 2 -19 0 -25z m1303 17 c7 -8 8 -15 2 -15 -5 0 -15 7 -22 15 -7 8 -8
15 -2 15 5 0 15 -7 22 -15z m-35 -5 c4 -6 -6 -10 -22 -10 -22 0 -25 2 -13 10
19 12 27 12 35 0z m-3925 -10 c0 -5 -2 -10 -4 -10 -3 0 -8 5 -11 10 -3 6 -1
10 4 10 6 0 11 -4 11 -10z m3380 -45 c0 -5 -5 -3 -10 5 -5 8 -10 20 -10 25 0
6 5 3 10 -5 5 -8 10 -19 10 -25z m590 25 c-8 -5 -35 -9 -60 -8 l-45 1 45 7
c73 11 78 11 60 0z m-4733 -57 c-3 -10 -5 -2 -5 17 0 19 2 27 5 18 2 -10 2
-26 0 -35z m1358 -20 c8 -20 24 -43 35 -50 25 -17 57 -75 38 -68 -7 3 -21 18
-31 33 -9 15 -28 42 -42 61 -14 19 -25 40 -25 47 0 24 9 15 25 -23z m2809 22
c3 -8 1 -15 -3 -15 -5 0 -11 7 -15 15 -3 8 -1 15 3 15 5 0 11 -7 15 -15z
m-2321 -26 c-10 -17 -24 -36 -32 -42 -8 -7 -2 7 14 31 32 49 45 57 18 11z
m-144 -29 c17 -22 28 -40 23 -40 -5 0 -21 18 -36 40 -14 22 -25 40 -23 40 2 0
18 -18 36 -40z m-1702 -277 c-1 -59 -3 -13 -3 102 0 116 2 164 3 108 2 -56 2
-151 0 -210z m4508 277 c3 -5 -1 -10 -10 -10 -9 0 -13 5 -10 10 3 6 8 10 10
10 2 0 7 -4 10 -10z m-5164 -52 c31 -44 15 -33 -22 15 -19 23 -26 36 -16 28
10 -8 27 -27 38 -43z m842 -141 c131 -199 130 -197 124 -197 -3 0 -38 51 -79
113 -100 151 -108 162 -146 219 -18 28 -28 47 -22 43 5 -3 61 -84 123 -178z
m71 167 c3 -8 2 -12 -4 -9 -6 3 -10 10 -10 16 0 14 7 11 14 -7z m671 -22 c-3
-3 -11 0 -18 7 -9 10 -8 11 6 5 10 -3 15 -9 12 -12z m2462 -14 c-3 -7 -5 -2
-5 12 0 14 2 19 5 13 2 -7 2 -19 0 -25z m-3338 -40 c11 -21 18 -38 16 -38 -7
0 -45 63 -45 74 0 13 5 7 29 -36z m561 32 c0 -5 -2 -10 -4 -10 -3 0 -8 5 -11
10 -3 6 -1 10 4 10 6 0 11 -4 11 -10z m3921 -13 c-10 -9 -11 -8 -5 6 3 10 9
15 12 12 3 -3 0 -11 -7 -18z m-3620 -42 l10 -20 -16 20 c-9 11 -20 20 -25 20
-6 0 -10 3 -10 8 0 28 2 30 16 12 9 -11 20 -29 25 -40z m64 35 c3 -5 2 -10 -4
-10 -5 0 -13 5 -16 10 -3 6 -2 10 4 10 5 0 13 -4 16 -10z m-327 -63 c19 -34
27 -55 19 -47 -22 23 -70 110 -60 110 4 0 23 -28 41 -63z m2668 29 c-15 -13
-26 -30 -26 -37 0 -11 -2 -11 -10 1 -10 17 24 60 47 60 9 0 4 -9 -11 -24z m54
-21 c0 -22 -24 -55 -87 -123 -14 -14 -42 -103 -44 -136 -1 -17 -2 -18 -6 -4
-2 10 3 44 12 75 13 43 30 72 67 111 39 41 49 59 45 78 -2 13 0 24 4 24 5 0 9
-11 9 -25z m-2268 -69 c10 -21 15 -35 9 -31 -6 3 -23 30 -37 58 -28 58 -4 34
28 -27z m-162 33 c0 -18 -18 -9 -23 12 -4 16 -3 18 9 8 8 -6 14 -15 14 -20z
m455 21 c3 -5 1 -10 -4 -10 -6 0 -11 5 -11 10 0 6 2 10 4 10 3 0 8 -4 11 -10z
m1875 0 c0 -5 -4 -10 -10 -10 -5 0 -10 5 -10 10 0 6 5 10 10 10 6 0 10 -4 10
-10z m-3175 -30 c8 -16 15 -37 14 -47 0 -16 -36 49 -38 70 -2 16 9 6 24 -23z
m23 5 c-3 -3 -9 2 -12 12 -6 14 -5 15 5 6 7 -7 10 -15 7 -18z m776 9 c3 -8 2
-12 -4 -9 -6 3 -10 10 -10 16 0 14 7 11 14 -7z m3216 6 c0 -5 -2 -10 -4 -10
-3 0 -8 5 -11 10 -3 6 -1 10 4 10 6 0 11 -4 11 -10z m-2956 -21 c-3 -5 2 -9
11 -9 9 0 13 -5 10 -10 -8 -13 -22 -5 -35 20 -8 16 -8 18 5 14 8 -3 12 -10 9
-15z m-324 7 c0 -3 -4 -8 -10 -11 -5 -3 -10 -1 -10 4 0 6 5 11 10 11 6 0 10
-2 10 -4z m2420 -35 c8 -28 7 -31 -5 -21 -14 11 -19 7 -16 -12 0 -4 -6 -5 -13
-2 -12 4 -14 -7 -12 -56 2 -40 -1 -59 -8 -57 -6 2 -10 14 -9 26 2 13 -3 21
-12 21 -8 0 -15 7 -15 15 0 8 5 15 10 15 6 0 10 -5 10 -12 0 -6 3 -8 6 -5 4 4
2 12 -4 20 -8 9 -3 25 20 60 17 26 33 46 35 44 2 -3 8 -19 13 -36z m20 29 c0
-5 -4 -10 -10 -10 -5 0 -10 5 -10 10 0 6 5 10 10 10 6 0 10 -4 10 -10z m-3202
-36 c-4 -3 -12 5 -18 18 -12 22 -12 22 6 6 10 -10 15 -20 12 -24z m3107 26
c-4 -6 -8 -25 -11 -42 -6 -48 -34 -104 -44 -87 -5 7 -4 22 2 33 5 12 -1 8 -16
-9 -29 -34 -33 -47 -11 -39 10 4 15 0 15 -12 0 -11 -3 -15 -8 -9 -14 21 -57 2
-48 -21 3 -8 2 -13 -3 -11 -5 1 -18 -9 -30 -23 l-22 -25 17 30 c27 44 155 225
161 225 2 0 1 -5 -2 -10z m849 -15 c-9 -14 -18 -25 -21 -25 -5 0 5 18 20 38
17 22 18 13 1 -13z m126 -32 c18 -21 70 -77 116 -124 46 -47 84 -91 84 -98 0
-15 109 -121 125 -121 6 0 16 5 23 12 6 6 14 9 18 6 3 -4 -5 -14 -19 -23 -30
-20 -90 -38 -82 -24 4 5 1 9 -4 9 -6 0 -11 6 -11 14 0 7 -7 19 -15 26 -9 8
-15 9 -15 2 0 -6 4 -13 9 -17 5 -3 12 -18 16 -34 5 -23 18 -35 65 -58 33 -15
60 -33 60 -38 0 -11 -60 -38 -67 -31 -2 2 9 10 26 17 18 8 26 16 19 20 -6 4
-17 1 -24 -6 -13 -12 -79 -7 -72 6 5 10 -24 39 -39 39 -13 0 -13 -3 -2 -17 11
-15 9 -14 -9 1 -12 11 -20 21 -17 24 3 3 -3 14 -12 24 -9 11 -19 31 -21 46 -4
30 -23 47 -34 29 -4 -6 -9 1 -14 19 -8 34 -33 66 -45 58 -5 -3 -9 -18 -9 -35
0 -16 -2 -29 -4 -29 -9 0 -133 61 -148 73 -12 10 -15 24 -11 62 6 75 12 97 24
89 7 -4 9 11 4 50 -12 96 18 106 85 29z m-3427 1 c-2 -7 1 -22 7 -34 20 -37
-6 -13 -30 27 -12 21 -16 32 -9 26 7 -7 17 -13 23 -13 6 0 5 5 -2 12 -7 7 -12
16 -12 22 0 5 6 1 14 -9 8 -11 12 -25 9 -31z m661 31 c3 -8 1 -15 -4 -15 -6 0
-10 7 -10 15 0 8 2 15 4 15 2 0 6 -7 10 -15z m2556 -10 c0 -8 -7 -15 -15 -15
-16 0 -20 12 -8 23 11 12 23 8 23 -8z m-3105 -5 c3 -5 2 -10 -4 -10 -5 0 -13
5 -16 10 -3 6 -2 10 4 10 5 0 13 -4 16 -10z m430 -76 l60 -56 -54 43 c-85 70
-108 91 -86 80 11 -6 47 -36 80 -67z m225 51 c14 -19 14 -19 -2 -6 -10 7 -18
18 -18 24 0 6 1 8 3 6 1 -2 9 -13 17 -24z m-1290 -5 c6 -11 8 -20 6 -20 -3 0
-10 9 -16 20 -6 11 -8 20 -6 20 3 0 10 -9 16 -20z m1210 -2 c0 -6 -6 -5 -15 2
-8 7 -15 14 -15 16 0 2 7 1 15 -2 8 -4 15 -11 15 -16z m-1226 -25 c9 -18 14
-33 12 -33 -6 0 -36 55 -36 66 0 11 5 3 24 -33z m605 -44 c13 -22 13 -23 -1
-11 -11 8 -17 9 -20 2 -1 -5 -9 0 -17 12 -13 21 -13 22 2 9 18 -14 24 -2 8 15
-5 5 -12 20 -15 34 -6 21 -4 20 11 -6 10 -18 24 -42 32 -55z m3135 55 c5 -14
4 -15 -9 -4 -17 14 -19 20 -6 20 5 0 12 -7 15 -16z m52 -16 c-9 -12 -16 -19
-16 -15 0 11 24 47 28 42 2 -2 -3 -14 -12 -27z m-3115 -5 c10 -26 12 -27 19
-8 5 11 9 17 9 13 1 -3 4 -13 7 -22 9 -25 -22 -20 -40 6 -16 23 -20 38 -11 38
3 0 10 -12 16 -27z m2376 -5 c-3 -7 -5 -2 -5 12 0 14 2 19 5 13 2 -7 2 -19 0
-25z m-2093 6 c3 -8 2 -12 -4 -9 -6 3 -10 10 -10 16 0 14 7 11 14 -7z m386 -9
c13 -14 21 -25 18 -25 -2 0 -15 11 -28 25 -13 14 -21 25 -18 25 2 0 15 -11 28
-25z m-586 -11 c9 -4 16 -18 16 -33 0 -17 -3 -22 -8 -13 -5 7 -15 10 -24 7
-11 -4 -14 0 -12 17 3 33 2 32 28 22z m111 -4 c3 -5 1 -10 -4 -10 -6 0 -11 5
-11 10 0 6 2 10 4 10 3 0 8 -4 11 -10z m-60 -9 c3 -5 2 -12 -3 -15 -5 -3 -9 1
-9 9 0 17 3 19 12 6z m-161 -17 c3 -8 2 -12 -4 -9 -6 3 -10 10 -10 16 0 14 7
11 14 -7z m586 -14 c0 -15 -5 -12 -26 11 -19 22 -19 22 4 10 12 -6 22 -16 22
-21z m-390 -15 c0 -5 -5 -3 -10 5 -5 8 -10 20 -10 25 0 6 5 3 10 -5 5 -8 10
-19 10 -25z m97 -27 c9 -10 11 -18 5 -18 -12 0 -62 61 -62 76 1 5 9 -2 20 -16
11 -14 27 -33 37 -42z m-237 8 c75 -9 103 -27 30 -20 -71 7 -115 21 -132 41
-12 15 -10 15 17 1 17 -9 55 -18 85 -22z m2236 6 c-18 -16 -18 -16 -6 6 6 13
14 21 18 18 3 -4 -2 -14 -12 -24z m64 4 c0 -3 -4 -8 -10 -11 -5 -3 -10 -1 -10
4 0 6 5 11 10 11 6 0 10 -2 10 -4z m-2949 -33 c13 -16 12 -17 -3 -4 -10 7 -18
15 -18 17 0 8 8 3 21 -13z m117 -40 c21 -32 42 -65 47 -73 7 -13 6 -13 -8 0
-18 18 -90 130 -83 130 3 0 23 -26 44 -57z m660 32 c21 -26 38 -34 27 -12 -4
6 1 3 9 -7 11 -13 16 -15 16 -6 0 7 3 11 6 7 3 -3 1 -14 -5 -24 -6 -10 -11
-13 -11 -7 0 7 -8 15 -17 18 -30 11 -58 31 -60 44 -5 20 14 13 35 -13z m45 11
c4 -10 1 -13 -9 -9 -15 6 -19 23 -5 23 5 0 11 -7 14 -14z m-1066 -18 c-3 -8
-6 -5 -6 6 -1 11 2 17 5 13 3 -3 4 -12 1 -19z m3223 -58 c-15 -57 -21 -46 -8
15 6 28 13 45 15 38 2 -6 -1 -30 -7 -53z m-3223 -42 c-2 -18 -4 -6 -4 27 0 33
2 48 4 33 2 -15 2 -42 0 -60z m293 52 c12 -16 19 -30 16 -30 -2 0 -14 14 -26
30 -12 17 -19 30 -16 30 2 0 14 -13 26 -30z m2701 13 c-18 -33 -61 -87 -61
-77 0 10 61 94 67 94 2 0 -1 -8 -6 -17z m49 3 c0 -2 -7 -9 -15 -16 -13 -11
-14 -10 -9 4 5 14 24 23 24 12z m-4522 -52 c-3 -27 -4 -26 -9 8 -3 22 -1 34 4
29 5 -5 7 -21 5 -37z m2587 8 c-3 -3 -11 0 -18 7 -9 10 -8 11 6 5 10 -3 15 -9
12 -12z m70 -54 l40 -43 -45 40 c-25 22 -47 41 -49 43 -2 1 0 2 5 2 6 0 28
-19 49 -42z m3812 -85 c-2 -21 -4 -6 -4 32 0 39 2 55 4 38 2 -18 2 -50 0 -70z
m-1793 60 c-4 -16 -20 -53 -36 -83 -16 -30 -26 -46 -22 -35 3 11 7 27 8 35 0
8 7 19 14 23 6 4 12 14 12 22 0 15 21 65 27 65 2 0 0 -12 -3 -27z m-2743 -10
c13 -16 12 -17 -3 -4 -10 7 -18 15 -18 17 0 8 8 3 21 -13z m2676 -45 c-25 -32
-87 -76 -87 -62 0 4 -6 1 -12 -8 -7 -9 -39 -30 -70 -47 -57 -31 -84 -39 -74
-22 3 5 -4 11 -15 14 -16 4 -19 2 -14 -10 3 -9 0 -20 -6 -24 -14 -8 -39 -1
-39 12 0 4 7 6 16 2 13 -5 15 -2 10 15 -6 18 -2 22 21 27 15 4 57 19 93 35 36
16 84 33 107 40 28 7 49 21 64 41 11 17 23 28 26 25 3 -2 -6 -20 -20 -38z
m-2627 -28 c12 -16 19 -30 16 -30 -2 0 -14 14 -26 30 -12 17 -19 30 -16 30 2
0 14 -13 26 -30z m2595 -40 c-16 -16 -31 -27 -34 -24 -5 4 48 53 58 54 3 0 -8
-13 -24 -30z m-2448 -180 c114 -171 133 -202 116 -185 -13 13 -192 277 -223
330 -46 78 -1 18 107 -145z m-2194 163 c-7 -2 -21 -2 -30 0 -10 3 -4 5 12 5
17 0 24 -2 18 -5z m1901 -9 c3 -8 2 -12 -4 -9 -6 3 -10 10 -10 16 0 14 7 11
14 -7z m4649 -14 c-3 -12 -8 -19 -11 -16 -5 6 5 36 12 36 2 0 2 -9 -1 -20z
m-5006 -97 c-2 -21 -4 -4 -4 37 0 41 2 58 4 38 2 -21 2 -55 0 -75z m2767 52
c-9 -14 -18 -25 -21 -25 -5 0 5 18 20 38 17 22 18 13 1 -13z m340 10 c-4 -8
-11 -15 -16 -15 -6 0 -5 6 2 15 7 8 14 15 16 15 2 0 1 -7 -2 -15z m-194 -30
c-7 -8 -18 -15 -24 -15 -6 0 -2 7 8 15 25 19 32 19 16 0z m1609 3 c14 5 14 4
1 -14 -23 -29 -64 -64 -75 -64 -5 1 5 14 24 30 30 26 33 31 21 47 -11 14 -11
15 -1 6 7 -6 21 -9 30 -5z m-1509 -32 c0 -2 -8 -10 -17 -17 -16 -13 -17 -12
-4 4 13 16 21 21 21 13z m-4653 -32 c-3 -3 -12 -4 -19 -1 -8 3 -5 6 6 6 11 1
17 -2 13 -5z m4613 -18 c0 -2 -8 -10 -17 -17 -16 -13 -17 -12 -4 4 13 16 21
21 21 13z m-4566 -25 c3 -4 -6 -6 -19 -3 -14 2 -25 6 -25 8 0 8 39 4 44 -5z
m1926 -70 c30 -31 42 -46 25 -34 -45 32 -131 117 -104 102 13 -7 49 -37 79
-68z m4780 31 c0 -4 -10 -13 -22 -21 -23 -14 -23 -14 -4 8 20 22 26 25 26 13z
m-297 -59 c-7 -2 -19 -2 -25 0 -7 3 -2 5 12 5 14 0 19 -2 13 -5z m37 3 c0 -3
-4 -8 -10 -11 -5 -3 -10 -1 -10 4 0 6 5 11 10 11 6 0 10 -2 10 -4z m-325 -45
c-3 -6 -21 -18 -38 -26 -18 -9 -23 -10 -13 -3 11 7 26 20 35 29 17 17 27 17
16 0z m-4070 -21 c3 -5 1 -10 -4 -10 -6 0 -11 5 -11 10 0 6 2 10 4 10 3 0 8
-4 11 -10z m356 -65 c8 -16 6 -15 -10 4 -12 13 -21 28 -21 35 0 12 14 -5 31
-39z m-2380 18 c13 -16 12 -17 -3 -4 -10 7 -18 15 -18 17 0 8 8 3 21 -13z
m1976 -9 c-3 -3 -12 -4 -19 -1 -8 3 -5 6 6 6 11 1 17 -2 13 -5z m90 -10 c-3
-3 -12 -4 -19 -1 -8 3 -5 6 6 6 11 1 17 -2 13 -5z m4336 -91 c-7 -2 -19 -2
-25 0 -7 3 -2 5 12 5 14 0 19 -2 13 -5z m-4783 -171 c0 -9 -9 -3 -22 14 l-23
29 -6 -45 c-6 -44 -6 -44 -7 14 l-2 60 30 -29 c17 -16 30 -35 30 -43z m2270
-23 c-7 -11 -14 -18 -17 -15 -3 3 0 12 7 21 18 21 23 19 10 -6z m-2190 -29 c8
-5 11 -10 5 -10 -5 0 -21 10 -35 21 -24 20 -5 13 30 -11z m-133 -147 c-2 -21
-4 -4 -4 37 0 41 2 58 4 38 2 -21 2 -55 0 -75z m288 47 c10 -11 16 -20 13 -20
-3 0 -13 9 -23 20 -10 11 -16 20 -13 20 3 0 13 -9 23 -20z m2225 1 c0 -5 9
-11 20 -14 11 -3 20 -1 20 4 0 14 23 10 52 -9 l26 -17 -41 -61 c-78 -112 -70
-105 -100 -91 -15 6 -27 15 -27 20 0 11 15 8 28 -5 9 -9 12 -9 12 1 0 7 5 9
11 6 6 -4 13 2 16 14 3 11 9 18 14 15 5 -3 9 0 9 5 0 6 -6 11 -12 12 -10 0
-10 2 0 6 6 2 10 9 7 13 -3 5 -12 7 -19 4 -7 -3 -21 6 -30 20 -14 23 -14 26
-1 26 8 0 15 -7 15 -16 0 -8 4 -13 10 -9 5 3 7 12 3 20 -3 9 1 15 8 15 8 0 1
11 -16 25 -16 13 -24 24 -17 25 6 0 12 -4 12 -9z m-226 -16 c2 -7 -9 -9 -28
-7 -27 3 -38 -2 -59 -28 -34 -40 -35 -28 -3 15 19 25 32 32 55 31 17 -1 33 -6
35 -11z m161 -5 c3 -5 -1 -10 -9 -10 -8 0 -18 5 -21 10 -3 6 1 10 9 10 8 0 18
-4 21 -10z m-75 -40 c0 -22 -4 -40 -10 -40 -5 0 -10 11 -10 25 0 14 -4 25 -9
25 -5 0 -7 -8 -4 -19 6 -23 -14 -38 -30 -22 -9 9 -8 11 6 6 10 -4 17 -2 17 4
0 6 -7 11 -15 11 -27 0 -16 25 12 27 15 0 29 6 31 12 7 22 12 10 12 -29z m45
20 c17 -18 17 -20 2 -14 -10 3 -17 1 -17 -5 0 -6 7 -11 16 -11 8 0 12 -4 9
-10 -3 -5 -16 -10 -28 -9 -12 0 -17 3 -11 5 6 2 8 18 6 34 -5 35 -1 37 23 10z
m55 5 c-9 -11 -9 -19 -2 -28 8 -10 6 -17 -8 -27 -18 -13 -18 -15 -3 -32 9 -10
12 -18 6 -18 -17 0 -46 37 -32 42 6 2 12 13 13 23 3 29 17 55 28 55 6 0 5 -6
-2 -15z m-193 -21 c0 -16 0 -16 -21 -8 -22 8 -20 19 2 21 10 1 19 -5 19 -13z
m-16 -30 c15 -18 -1 -17 -25 1 -10 8 -23 12 -29 8 -6 -3 -7 -1 -4 5 9 13 42 5
58 -14z m-1250 -21 l24 -28 -30 25 c-16 14 -32 26 -34 28 -2 1 0 2 6 2 5 0 20
-12 34 -27z m-1014 -45 c-2 -13 -4 -3 -4 22 0 25 2 35 4 23 2 -13 2 -33 0 -45z
m2504 34 c-6 -2 -9 -8 -5 -13 3 -5 0 -9 -5 -9 -6 0 -10 11 -9 24 2 20 5 23 16
13 10 -7 10 -13 3 -15z m-2016 -46 l30 -29 -30 21 c-16 11 -39 30 -50 43 -20
24 -20 24 0 9 11 -8 33 -28 50 -44z m4712 48 c-3 -3 -12 -4 -19 -1 -8 3 -5 6
6 6 11 1 17 -2 13 -5z m-4102 -72 c-3 -3 -16 5 -28 17 l-22 23 28 -17 c15 -10
25 -20 22 -23z m1163 -32 c95 -29 147 -39 170 -35 17 3 32 2 32 -2 0 -4 -17
-26 -36 -48 -37 -40 -62 -47 -91 -23 -7 6 -24 8 -38 6 -14 -3 -25 -1 -25 3 0
5 -5 9 -11 9 -6 0 -7 -5 -2 -12 15 -24 12 -40 -5 -33 -9 3 -30 9 -47 12 -24 4
-27 2 -15 -7 11 -8 -6 -10 -72 -7 -48 1 -84 -1 -82 -5 6 -10 -4 -9 -31 2 -15
6 -26 1 -43 -19 l-23 -26 18 30 c48 80 136 195 149 195 9 0 77 -18 152 -40z
m-3927 13 c13 -16 12 -17 -3 -4 -10 7 -18 15 -18 17 0 8 8 3 21 -13z m2240
-11 c-7 -2 -18 1 -23 6 -8 8 -4 9 13 5 13 -4 18 -8 10 -11z m76 -18 c-3 -3
-12 -4 -19 -1 -8 3 -5 6 6 6 11 1 17 -2 13 -5z m113 -35 c19 -10 46 -28 60
-40 l25 -21 -25 16 c-55 36 -71 41 -82 25 -8 -11 -9 -10 -4 5 5 15 2 17 -14
13 -11 -3 -20 -1 -20 4 0 5 -10 14 -22 19 -18 8 -16 9 12 4 19 -4 51 -15 70
-25z m-74 -70 c19 -22 19 -22 -3 -8 -13 8 -23 17 -23 21 0 12 6 9 26 -13z
m211 -9 c21 -11 31 -20 23 -20 -8 0 -28 9 -45 20 -39 26 -26 26 22 0z m1413
10 c0 -5 -8 -10 -17 -10 -15 0 -16 2 -3 10 19 12 20 12 20 0z m-1281 -46 c10
-9 -65 -3 -78 5 -10 6 1 8 30 4 24 -3 46 -7 48 -9z m1290 -13 c50 -4 -110 -94
-227 -126 -85 -24 -64 -35 68 -35 150 0 368 -56 395 -100 17 -28 -6 -62 -59
-86 -73 -33 -160 -43 -441 -50 -208 -6 -244 -9 -275 -25 -19 -11 -41 -19 -48
-19 -7 0 -11 -4 -8 -9 3 -5 -10 -19 -28 -32 -71 -48 -84 -109 -36 -169 72 -91
229 -153 500 -200 163 -27 646 -129 673 -141 21 -9 20 -9 -3 -5 -14 2 -146 29
-295 59 -148 30 -324 65 -390 78 -157 29 -306 73 -378 112 -72 38 -143 108
-151 148 -8 43 16 93 60 123 21 14 34 26 29 26 -6 0 -27 -11 -47 -25 -54 -37
-67 -88 -43 -177 2 -5 3 -12 4 -18 0 -5 6 -10 12 -10 8 0 7 6 -2 18 -13 15
-12 16 3 3 10 -7 16 -17 13 -21 -6 -10 40 -42 111 -78 77 -39 191 -73 384
-116 85 -19 220 -52 300 -74 80 -22 197 -54 260 -72 361 -99 486 -152 676
-286 34 -24 64 -50 68 -59 3 -9 10 -14 15 -11 18 12 46 -36 46 -79 0 -26 4
-41 10 -37 6 3 2 -6 -7 -20 -23 -34 -118 -125 -175 -165 -53 -38 -203 -117
-209 -110 -3 2 25 18 61 35 36 18 65 34 65 38 0 3 -7 3 -15 0 -9 -3 2 16 24
42 51 60 71 109 71 171 0 45 -4 54 -39 88 -21 21 -54 50 -72 66 -19 15 -29 27
-22 27 6 0 38 -23 71 -50 66 -55 98 -115 90 -169 -2 -16 -1 -28 4 -25 27 17
-7 129 -55 177 -12 12 -22 26 -22 32 0 26 -296 191 -410 228 -141 45 -526 147
-556 147 -17 0 -2 -13 19 -16 32 -5 356 -92 442 -119 269 -85 403 -191 445
-355 6 -24 14 -40 17 -34 4 5 -2 33 -11 62 -13 36 -14 49 -5 41 21 -17 34 -70
30 -124 -5 -66 -4 -65 -17 -63 -6 2 -23 -19 -37 -46 -36 -66 -117 -129 -237
-186 -55 -25 -135 -68 -177 -93 -43 -26 -142 -77 -220 -113 -263 -121 -372
-177 -460 -236 -49 -32 -88 -56 -88 -54 0 18 213 144 370 219 326 157 344 165
425 219 93 62 172 132 225 203 48 65 64 114 54 168 l-8 42 -7 -50 c-6 -49 -6
-49 -8 -10 -2 63 -34 119 -92 165 -49 39 -207 126 -214 118 -2 -2 35 -23 81
-47 136 -70 178 -126 178 -241 0 -69 -29 -126 -99 -195 -52 -53 -190 -148
-268 -186 -25 -13 -43 -27 -40 -32 3 -6 1 -7 -4 -4 -6 4 -30 0 -53 -8 -66 -23
-60 -18 35 30 122 62 277 167 315 213 17 20 45 65 62 99 29 59 30 65 19 110
-26 103 -57 135 -213 222 -67 38 -341 141 -380 144 -16 1 -28 6 -28 10 0 5 -4
6 -9 3 -5 -3 -115 28 -245 69 -130 41 -242 75 -249 75 -16 0 338 -120 473
-161 201 -60 395 -154 470 -229 53 -52 90 -138 90 -208 0 -116 -157 -245 -455
-373 -294 -126 -373 -171 -490 -281 -131 -122 -202 -252 -229 -420 -2 -14 -12
-38 -21 -52 -19 -29 -31 -35 -16 -8 5 9 21 63 35 120 39 156 94 250 212 363
90 85 173 140 303 201 273 128 323 155 423 225 58 41 109 82 112 91 3 9 17 35
31 57 14 22 25 55 25 73 0 17 4 32 8 32 5 0 7 -16 6 -35 -3 -33 -15 -62 -51
-115 -9 -14 5 -3 31 24 62 65 70 110 33 187 -33 68 -57 95 -147 159 -67 48
-218 125 -227 116 -2 -2 33 -25 79 -52 84 -49 182 -138 198 -179 5 -12 12 -55
16 -94 9 -98 -8 -133 -105 -216 -89 -75 -211 -141 -406 -220 -264 -106 -381
-189 -484 -342 -55 -81 -82 -155 -106 -290 -18 -107 -19 -147 -3 -137 7 4 8 3
4 -5 -13 -21 -26 -1 -26 41 0 213 70 380 219 526 111 108 180 147 431 240 176
65 260 115 372 218 70 65 91 99 90 149 -2 93 -131 264 -210 280 -10 2 -36 15
-57 29 -126 86 -607 273 -666 260 -19 -5 -21 -4 -9 5 12 9 9 10 -15 5 -24 -4
-27 -3 -15 6 12 9 10 11 -12 7 -17 -2 -25 0 -21 6 4 6 -4 7 -21 3 -15 -4 -25
-3 -23 1 3 4 -5 8 -16 8 -12 1 -33 5 -46 9 -16 6 -21 5 -17 -3 4 -6 13 -11 19
-11 20 0 264 -85 372 -129 55 -23 106 -39 114 -36 9 3 12 3 8 -1 -4 -5 30 -26
75 -47 102 -49 190 -133 236 -226 27 -53 32 -76 32 -133 0 -152 -67 -210 -385
-332 -97 -37 -140 -61 -222 -121 -157 -116 -219 -225 -233 -405 l-7 -95 -1 91
c-3 133 39 254 114 334 98 104 188 159 374 225 195 70 272 120 315 205 70 138
-29 333 -220 432 -98 51 -434 189 -458 188 -7 -1 15 -11 48 -24 110 -43 340
-144 382 -168 75 -43 151 -116 179 -174 23 -48 26 -63 22 -128 -7 -110 -57
-184 -158 -236 -42 -21 -301 -103 -307 -96 -2 2 59 25 137 50 78 25 160 59
184 75 79 55 126 136 126 218 0 84 -15 117 -84 180 -146 133 -497 286 -800
348 -71 15 -168 38 -215 52 -47 14 -100 27 -117 28 -65 6 -325 121 -391 174
-46 35 -104 133 -109 181 -3 33 1 45 31 77 19 21 35 34 35 30 0 -4 10 2 23 14
29 28 110 64 222 100 50 16 72 27 51 23 -60 -9 -217 -63 -248 -85 -15 -10 -31
-19 -36 -19 -11 0 -59 -47 -79 -77 -38 -57 -8 -159 66 -226 63 -57 283 -163
411 -198 36 -10 97 -27 135 -37 39 -11 95 -25 125 -31 30 -6 66 -14 80 -17 14
-4 57 -12 95 -19 74 -14 186 -53 298 -104 70 -31 95 -53 30 -25 -84 35 -208
74 -221 69 -7 -2 -11 -1 -8 4 6 9 -37 31 -62 31 -12 -1 -10 -4 8 -15 37 -21
14 -18 -81 10 -46 14 -93 28 -104 30 -60 12 -357 98 -400 116 -167 69 -261
125 -336 199 -63 62 -75 71 -73 51 1 -14 10 -28 18 -33 9 -5 16 -15 16 -22 0
-7 14 -23 31 -35 18 -13 28 -18 24 -11 -5 8 -3 11 6 8 8 -3 13 -11 11 -17 -1
-7 1 -10 6 -7 4 2 28 -9 52 -25 42 -28 118 -67 230 -116 72 -32 564 -173 603
-173 24 0 308 -93 302 -98 -2 -3 49 -31 114 -62 99 -48 129 -68 189 -129 70
-70 92 -110 92 -171 0 -20 -2 -22 -10 -10 -8 12 -10 11 -10 -8 0 -59 -60 -139
-132 -178 -33 -17 -235 -96 -343 -134 -125 -43 -170 -66 -214 -105 -54 -49
-105 -121 -121 -168 -13 -40 -16 -160 -5 -199 5 -21 5 -21 -6 -4 -6 10 -14 58
-17 106 -4 78 -2 93 21 143 50 109 138 177 292 227 90 29 335 125 384 150 73
37 121 113 123 193 3 105 -52 163 -247 262 -106 54 -232 102 -242 92 -3 -4 8
-9 23 -13 50 -12 221 -91 271 -125 55 -38 143 -118 143 -130 0 -5 -21 12 -46
37 -67 65 -125 102 -234 150 -90 40 -185 67 -167 48 4 -4 18 -9 30 -11 63 -8
189 -84 197 -118 1 -5 20 -29 41 -52 61 -67 46 -68 -23 -2 -48 46 -92 74 -183
119 -137 67 -280 113 -322 105 -21 -4 -23 -3 -8 3 14 7 -32 22 -179 58 -192
48 -226 58 -216 67 6 6 442 -104 543 -138 56 -18 83 -22 95 -15 18 10 18 10
-30 14 -7 1 -15 3 -18 6 -3 4 -138 39 -300 80 -294 73 -295 73 -330 112 -28
31 -49 42 -108 58 -69 19 -203 83 -239 115 -10 9 -49 42 -86 74 -38 32 -80 75
-93 95 -14 20 -27 36 -30 36 -9 0 18 -45 43 -72 14 -15 31 -37 37 -49 6 -13
36 -38 66 -57 57 -35 38 -35 -38 -1 -24 11 -47 17 -53 13 -5 -3 -39 8 -74 25
-35 17 -68 31 -73 31 -16 0 -99 79 -119 112 -27 46 -15 89 38 146 24 26 33 38
19 27 -49 -39 -90 -90 -90 -113 0 -36 28 -95 58 -121 32 -28 11 -18 -36 16
-38 29 -57 63 -67 121 -8 49 10 106 31 98 13 -5 38 17 29 26 -6 6 52 36 154
79 88 37 239 76 330 84 36 4 111 13 166 20 55 7 152 16 215 20 285 15 329 19
317 31 -2 3 -123 -2 -268 -11 -249 -14 -412 -31 -575 -59 -39 -7 -81 -9 -93
-5 -14 6 -24 3 -31 -9 -9 -13 -12 -14 -17 -3 -4 9 -7 10 -13 2 -4 -7 -37 -13
-77 -14 -39 -1 -69 -5 -66 -9 2 -5 -1 -8 -6 -8 -6 0 -11 4 -11 8 0 5 -15 18
-32 31 l-33 22 28 -25 c25 -23 26 -26 9 -26 -11 0 -23 7 -26 16 -3 8 -10 12
-16 9 -6 -3 -7 1 -4 9 4 12 0 16 -17 16 -28 0 -17 12 14 16 12 1 24 3 26 3 2
1 -2 8 -9 16 -17 20 -3 19 17 -1 13 -12 18 -13 24 -3 4 8 11 10 16 6 11 -11
-17 -26 -35 -19 -23 8 -5 -16 21 -30 21 -11 21 -10 7 7 -14 17 -13 18 3 12 11
-4 16 -3 12 3 -8 14 28 13 42 -1 15 -15 59 -7 55 10 -1 7 8 22 20 34 16 14 18
18 6 14 -10 -3 -20 -2 -23 3 -3 4 30 11 72 14 162 13 190 15 268 21 251 19
360 22 367 11 6 -8 8 -8 8 1 0 8 20 12 61 12 34 0 98 2 144 6 l82 7 37 -47
c20 -27 35 -50 33 -51 -2 -2 -28 -8 -58 -13 -47 -9 -44 -9 31 -4 47 3 143 9
214 12 l130 6 54 75 53 75 77 3 c42 2 109 6 147 10 61 6 129 7 174 3z m-2322
-118 c-3 -10 -5 -2 -5 17 0 19 2 27 5 18 2 -10 2 -26 0 -35z m398 -33 c-3 -5
-2 -10 2 -10 5 0 9 -9 10 -20 1 -11 -4 -20 -11 -20 -7 0 -21 9 -31 20 -10 11
-13 20 -7 20 6 0 12 -6 15 -12 2 -7 8 -10 12 -6 18 17 -9 30 -54 24 -32 -4
-40 -3 -26 3 28 13 98 14 90 1z m-167 -27 c-10 -2 -26 -2 -35 0 -10 3 -2 5 17
5 19 0 27 -2 18 -5z m-231 -85 c-2 -13 -4 -3 -4 22 0 25 2 35 4 23 2 -13 2
-33 0 -45z m193 52 c0 -5 -10 -10 -22 -10 -19 0 -20 2 -8 10 19 13 30 13 30 0z
m-153 -92 c-3 -8 -6 -5 -6 6 -1 11 2 17 5 13 3 -3 4 -12 1 -19z m40 0 c-3 -8
-6 -5 -6 6 -1 11 2 17 5 13 3 -3 4 -12 1 -19z m2810 15 c-4 -3 -3 -11 3 -17
14 -18 -5 -39 -29 -31 -12 3 -18 11 -15 17 4 6 9 5 15 -3 6 -10 11 -11 19 -3
9 9 9 14 1 18 -15 9 -14 26 1 26 6 0 8 -3 5 -7z m-53 -18 c-4 -8 -10 -15 -16
-15 -5 0 -7 4 -3 9 3 5 -5 12 -17 14 -17 3 -15 5 9 6 25 1 31 -2 27 -14z m121
6 c17 -7 15 -9 -12 -13 -18 -2 -30 -1 -27 3 2 4 -2 10 -8 12 -7 3 -4 5 7 6 11
0 29 -4 40 -8z m-208 -37 c-3 -3 -12 -4 -19 -1 -8 3 -5 6 6 6 11 1 17 -2 13
-5z m53 -2 c0 -10 -21 -32 -31 -32 -4 0 -5 9 -2 20 5 19 33 29 33 12z m30 -6
c0 -2 -7 -9 -15 -16 -13 -11 -14 -10 -9 4 5 14 24 23 24 12z m2487 -2 c-3 -3
-12 -4 -19 -1 -8 3 -5 6 6 6 11 1 17 -2 13 -5z m-2620 -20 c-3 -3 -12 -4 -19
-1 -8 3 -5 6 6 6 11 1 17 -2 13 -5z m-439 -81 c-10 -2 -26 -2 -35 0 -10 3 -2
5 17 5 19 0 27 -2 18 -5z m-4065 -60 c-7 -2 -19 -2 -25 0 -7 3 -2 5 12 5 14 0
19 -2 13 -5z m4435 -40 c-10 -2 -28 -2 -40 0 -13 2 -5 4 17 4 22 1 32 -1 23
-4z m79 -9 c-3 -3 -12 -4 -19 -1 -8 3 -5 6 6 6 11 1 17 -2 13 -5z m-2011 -155
c19 -22 19 -22 -3 -8 -13 8 -23 17 -23 21 0 12 6 9 26 -13z m-260 -54 c18 -13
18 -14 -4 -8 -12 3 -25 9 -28 14 -8 14 10 11 32 -6z m381 -109 c2 -2 -7 -1
-19 1 -13 3 -36 16 -53 29 l-30 25 49 -26 c28 -14 51 -27 53 -29z m-420 -58
c-3 -7 -5 -2 -5 12 0 14 2 19 5 13 2 -7 2 -19 0 -25z m50 26 c-3 -3 -12 -4
-19 -1 -8 3 -5 6 6 6 11 1 17 -2 13 -5z m5004 -17 c-10 -9 -11 -8 -5 6 3 10 9
15 12 12 3 -3 0 -11 -7 -18z m-5461 -2 c7 -8 9 -15 6 -15 -4 0 -14 7 -22 15
-9 8 -11 15 -6 15 5 0 15 -7 22 -15z m497 9 c-3 -3 -12 -4 -19 -1 -8 3 -5 6 6
6 11 1 17 -2 13 -5z m73 -25 c14 -11 21 -19 15 -16 -50 20 -75 32 -75 38 0 12
33 -1 60 -22z m495 -9 c3 -5 2 -10 -4 -10 -5 0 -13 5 -16 10 -3 6 -2 10 4 10
5 0 13 -4 16 -10z m-945 -10 c0 -5 -5 -10 -11 -10 -5 0 -7 5 -4 10 3 6 8 10
11 10 2 0 4 -4 4 -10z m53 -10 c-3 -11 -10 -23 -16 -27 -7 -4 -8 0 -4 11 4 10
7 22 7 27 0 5 4 9 9 9 5 0 7 -9 4 -20z m18 -17 c-12 -20 -14 -14 -5 12 4 9 9
14 11 11 3 -2 0 -13 -6 -23z m49 -63 c0 -5 -5 -10 -11 -10 -5 0 -7 5 -4 10 3
6 8 10 11 10 2 0 4 -4 4 -10z m-1 -27 c28 7 27 -1 -1 -12 -23 -8 -50 7 -41 23
3 4 9 3 13 -4 4 -7 17 -10 29 -7z m1046 -27 c338 -103 562 -195 616 -252 32
-34 18 -30 -56 17 -87 55 -187 94 -465 184 -129 41 -239 80 -245 86 -12 14
-11 14 150 -35z m3208 27 c-7 -2 -21 -2 -30 0 -10 3 -4 5 12 5 17 0 24 -2 18
-5z m649 -10 c-62 -2 -161 -2 -220 0 -59 1 -8 3 113 3 121 0 169 -2 107 -3z
m245 1 c-3 -3 -12 -4 -19 -1 -8 3 -5 6 6 6 11 1 17 -2 13 -5z m50 -10 c-3 -3
-12 -4 -19 -1 -8 3 -5 6 6 6 11 1 17 -2 13 -5z m-5192 -32 c-3 -3 -11 0 -18 7
-9 10 -8 11 6 5 10 -3 15 -9 12 -12z m1005 -60 c0 19 395 -144 462 -190 52
-36 102 -95 112 -132 6 -23 6 -23 -5 -5 -36 62 -166 170 -191 160 -8 -3 -25 3
-37 14 -13 12 -27 18 -32 15 -5 -2 -25 6 -47 19 -36 24 -197 88 -255 102 -15
4 -37 21 -49 39 l-21 31 31 -29 c18 -17 32 -27 32 -24z m1049 13 c136 -72 199
-138 253 -265 49 -113 8 -232 -107 -313 -16 -11 -6 3 23 31 58 57 91 119 92
170 0 40 -54 173 -80 197 -10 9 -17 22 -14 29 9 22 -66 81 -196 155 -76 42
-53 39 29 -4z m-213 -33 c-5 -4 -66 26 -66 33 0 3 16 -3 35 -12 19 -9 33 -18
31 -21z m-415 9 c108 -37 302 -158 297 -185 -1 -6 6 -29 16 -51 25 -56 31
-109 16 -145 -17 -41 -143 -131 -182 -130 -7 1 8 12 33 25 26 13 71 46 100 73
l53 49 -12 52 c-13 56 -54 125 -67 113 -4 -4 -5 1 -1 12 12 35 -86 102 -274
185 -58 25 -48 26 21 2z m-177 -20 c4 -5 -3 -7 -14 -4 -23 6 -26 13 -6 13 8 0
17 -4 20 -9z m782 -107 c30 -28 54 -56 54 -64 0 -7 -18 8 -40 33 -23 25 -75
67 -115 93 -41 25 -75 48 -75 51 0 14 130 -69 176 -113z m-971 62 c23 -20 25
-24 9 -23 -18 2 -43 24 -44 40 0 11 5 9 35 -17z m-495 4 c13 -9 13 -10 0 -9
-8 0 -24 4 -35 9 l-20 9 20 0 c11 0 27 -4 35 -9z m1799 -149 c33 -62 51 -143
40 -181 -6 -20 -7 -15 -8 20 -1 25 -5 61 -11 80 -11 40 -71 141 -109 185 -17
20 -12 17 16 -9 23 -21 55 -64 72 -95z m-2334 104 c39 -17 21 -18 -25 0 -19 7
-28 14 -20 14 8 0 29 -6 45 -14z m1491 -11 c53 -31 126 -100 154 -146 29 -48
25 -58 -6 -12 -40 60 -84 102 -146 141 -32 20 -58 37 -58 39 0 8 13 3 56 -22z
m362 -47 c25 -23 53 -60 63 -82 20 -43 24 -69 10 -61 -5 3 -12 -6 -15 -20 -4
-14 -25 -45 -48 -70 -84 -91 -237 -158 -463 -204 -129 -26 -225 -51 -225 -59
0 -3 -17 -7 -38 -8 -91 -6 87 54 257 87 268 51 436 134 492 242 36 71 17 119
-81 194 -33 26 -60 49 -60 51 0 10 68 -34 108 -70z m-734 33 c14 0 27 -4 30
-9 4 -5 -4 -7 -16 -4 -38 9 -10 -12 72 -54 109 -57 155 -86 142 -91 -7 -2 -46
15 -87 37 -41 23 -79 41 -85 41 -29 0 -98 44 -118 76 l-23 35 30 -16 c17 -8
41 -15 55 -15z m1254 -44 c50 -55 82 -124 82 -175 -1 -87 -101 -186 -282 -283
-143 -75 -222 -108 -270 -112 -65 -5 -146 -40 -215 -93 -18 -13 -33 -20 -33
-14 0 27 121 88 259 130 126 39 342 144 406 197 89 75 119 157 90 246 -21 62
-46 101 -94 146 -22 20 -28 29 -15 23 12 -6 44 -35 72 -65z m-573 14 c12 -19
-12 -10 -31 11 -19 22 -19 22 3 10 12 -6 25 -16 28 -21z m-429 -67 c-5 -5 -94
40 -121 61 -11 9 13 0 53 -20 40 -20 71 -39 68 -41z m1139 25 c28 -33 47 -71
59 -118 3 -14 -5 -2 -18 27 -13 28 -44 73 -68 99 -25 28 -34 42 -22 36 12 -6
34 -26 49 -44z m-2764 15 c13 -16 12 -17 -3 -4 -10 7 -18 15 -18 17 0 8 8 3
21 -13z m786 -8 c23 -14 43 -28 43 -31 0 -3 -17 4 -37 17 -21 12 -51 25 -68
29 -26 7 -27 8 -6 9 13 1 44 -10 68 -24z m672 -55 c31 -16 83 -38 116 -51 33
-12 65 -26 70 -31 6 -5 -21 3 -60 17 -38 15 -80 30 -93 32 -12 3 -25 9 -28 14
-3 5 -17 9 -32 9 -21 0 -24 2 -12 10 12 8 10 10 -10 11 -14 1 -53 3 -88 5 -37
2 -61 0 -57 -5 3 -6 -7 -3 -23 4 -19 10 -53 14 -108 11 -49 -2 -71 0 -59 5 11
5 90 6 174 3 144 -6 159 -8 210 -34z m349 5 c12 -14 18 -25 13 -25 -5 0 -16
11 -25 25 -9 14 -15 25 -13 25 2 0 13 -11 25 -25z m268 -90 c-13 -50 -107
-137 -179 -164 -39 -15 -33 -5 11 18 58 29 126 95 147 140 20 45 31 48 21 6z
m140 -20 c-8 -31 -76 -107 -121 -135 -40 -24 -185 -91 -185 -85 0 3 39 25 88
49 119 60 188 117 203 167 13 43 25 46 15 4z m-525 -2 c13 -17 13 -17 -6 -3
-11 8 -22 16 -24 17 -2 2 0 3 6 3 6 0 17 -8 24 -17z m-1144 -19 c-3 -3 -12 -4
-19 -1 -8 3 -5 6 6 6 11 1 17 -2 13 -5z m98 -14 c18 -8 18 -9 -5 -9 -14 0 -34
4 -45 9 -18 8 -18 9 5 9 14 0 34 -4 45 -9z m2145 -27 c-11 -17 -11 -17 -6 0 3
10 6 24 7 30 0 9 2 9 5 0 3 -7 0 -20 -6 -30z m-68 -5 c-8 -8 -9 -4 -5 13 4 13
8 18 11 10 2 -7 -1 -18 -6 -23z m-1792 -12 c25 -8 39 -15 32 -15 -7 -1 -10 -6
-7 -11 4 -6 -11 -2 -32 9 -21 10 -45 21 -53 24 -36 13 17 6 60 -7z m-519 -83
c13 -16 12 -17 -3 -4 -17 13 -22 21 -14 21 2 0 10 -8 17 -17z m957 -9 c-4 -3
-44 -10 -90 -15 -144 -16 -274 -77 -329 -152 -23 -32 -29 -50 -29 -93 0 -29 5
-56 10 -59 6 -3 10 -12 10 -18 -1 -7 -10 -1 -20 12 -31 37 -27 108 9 158 39
54 118 106 201 134 19 7 15 7 -13 3 -24 -3 -37 -2 -33 4 7 12 -119 -19 -154
-38 -14 -7 -30 -20 -36 -28 -8 -10 -13 -12 -18 -4 -4 6 4 18 17 27 31 20 129
55 159 56 19 1 17 3 -7 8 -16 4 51 8 150 10 98 1 176 -1 173 -5z m177 -5 c-22
-4 -69 -7 -105 -7 l-65 2 75 6 c114 10 144 10 95 -1z m200 1 c-3 -5 -14 -10
-23 -9 -14 0 -13 2 3 9 27 11 27 11 20 0z m-208 -26 c-3 -3 -12 -4 -19 -1 -8
3 -5 6 6 6 11 1 17 -2 13 -5z m743 0 c0 -6 -65 -34 -77 -33 -4 0 10 9 32 19
48 22 45 21 45 14z m-1435 -28 c-58 -27 -110 -77 -120 -115 -5 -21 -1 -31 27
-55 24 -21 27 -25 9 -16 -45 23 -63 46 -56 70 17 55 125 140 175 139 8 0 -7
-10 -35 -23z m622 18 c-3 -3 -12 -4 -19 -1 -8 3 -5 6 6 6 11 1 17 -2 13 -5z
m151 1 c-2 -3 -42 -11 -89 -20 -46 -8 -113 -20 -149 -26 -86 -15 -121 -30
-176 -76 -62 -52 -84 -97 -84 -175 0 -49 7 -76 30 -123 16 -33 26 -63 22 -67
-4 -4 -21 4 -37 18 l-30 26 33 -22 c38 -25 42 -16 8 19 -25 26 -56 122 -56
173 0 46 24 90 76 139 76 71 111 85 314 119 114 19 146 23 138 15z m1482 -30
c0 -6 -177 -95 -187 -94 -6 0 174 96 185 98 1 1 2 -1 2 -4z m-1880 -31 c-30
-14 -71 -40 -90 -57 l-35 -32 30 33 c31 34 108 81 135 81 8 1 -10 -11 -40 -25z
m-408 -1 c-8 -3 -22 -19 -33 -37 -10 -17 -19 -25 -19 -17 0 18 39 61 54 60 6
0 5 -3 -2 -6z m557 -17 c-121 -62 -195 -142 -202 -216 l-4 -45 -1 48 c-1 26 4
60 12 76 22 42 102 110 159 136 68 31 95 31 36 1z m354 17 c-7 -2 -21 -2 -30
0 -10 3 -4 5 12 5 17 0 24 -2 18 -5z m-113 -23 c-137 -38 -255 -97 -285 -144
-9 -13 -19 -43 -24 -67 -7 -37 -9 -39 -10 -14 -2 45 38 116 76 135 18 10 39
22 46 29 26 21 205 80 242 79 11 0 -9 -8 -45 -18z m-700 6 c0 -2 -8 -10 -17
-17 -16 -13 -17 -12 -4 4 13 16 21 21 21 13z m1089 -10 c-2 -2 -33 -16 -68
-31 -36 -15 -90 -43 -120 -62 -76 -49 -205 -185 -237 -249 -30 -61 -37 -68
-24 -24 11 39 13 43 91 136 94 113 160 162 280 208 60 23 88 31 78 22z m-1170
-55 c-6 -18 -13 -30 -15 -28 -2 2 1 18 7 36 6 18 13 30 15 28 2 -2 -1 -18 -7
-36z m1011 32 c-8 -3 -37 -14 -65 -25 -27 -11 -45 -15 -40 -9 13 13 84 40 105
40 13 -1 13 -1 0 -6z m-488 -33 c-23 -16 -49 -41 -58 -55 -9 -14 -19 -23 -21
-21 -9 9 39 68 71 87 48 29 54 22 8 -11z m218 9 c-19 -12 -51 -35 -70 -52 -21
-20 -27 -23 -15 -8 24 29 94 81 109 81 6 0 -5 -10 -24 -21z m1330 6 c0 -5 -90
-45 -99 -44 -5 0 89 48 97 49 1 0 2 -2 2 -5z m-2043 -97 c-2 -13 -4 -5 -4 17
-1 22 1 32 4 23 2 -10 2 -28 0 -40z m1883 27 c0 -6 -117 -65 -127 -65 -4 1 21
16 57 35 72 38 70 37 70 30z m-260 -15 c-8 -5 -19 -10 -25 -10 -5 0 -3 5 5 10
8 5 20 10 25 10 6 0 3 -5 -5 -10z m-1590 -76 c0 -5 -6 -2 -63 36 -20 14 -37
28 -37 32 0 5 23 -8 50 -28 28 -20 50 -38 50 -40z m1526 15 c-54 -28 -100 -48
-102 -46 -5 5 176 96 191 96 6 0 -34 -23 -89 -50z m-121 -11 c-55 -28 -113
-61 -130 -73 -36 -27 -55 -38 -55 -32 0 11 128 92 192 122 111 51 106 41 -7
-17z m-965 2 c-5 -22 -8 -27 -9 -13 -1 21 9 56 14 51 2 -2 0 -19 -5 -38z
m1250 5 c-14 -8 -29 -14 -35 -14 -5 0 1 6 15 14 14 8 30 14 35 14 6 0 -1 -6
-15 -14z m-1312 -75 c0 -9 -3 -7 -8 5 -5 11 -8 29 -8 40 0 16 2 15 8 -5 4 -14
8 -32 8 -40z m-268 -11 l35 -31 -48 33 c-27 19 -51 37 -54 42 -9 15 30 -11 67
-44z m1480 41 c-8 -5 -19 -10 -25 -10 -5 0 -3 5 5 10 8 5 20 10 25 10 6 0 3
-5 -5 -10z m-595 -20 c-10 -11 -22 -20 -28 -20 -5 0 1 9 14 20 31 25 37 25 14
0z m-547 -55 c0 -29 0 -29 -8 -5 -4 14 -8 36 -8 50 -1 23 0 23 8 5 5 -11 8
-33 8 -50z m-161 33 c-3 -8 -6 -5 -6 6 -1 11 2 17 5 13 3 -3 4 -12 1 -19z
m1163 -23 c-47 -24 -89 -44 -95 -44 -5 0 28 20 75 44 47 24 90 44 95 44 6 0
-28 -20 -75 -44z m-498 8 c-19 -7 -98 -114 -116 -156 -8 -20 -18 -37 -21 -37
-8 0 22 67 46 103 32 46 81 97 93 96 6 0 5 -3 -2 -6z m-742 -59 c0 -3 -13 4
-30 16 -16 12 -30 24 -30 26 0 3 14 -4 30 -16 17 -12 30 -24 30 -26z m287 14
c-3 -8 -6 -5 -6 6 -1 11 2 17 5 13 3 -3 4 -12 1 -19z m843 -13 c0 -2 -10 -9
-22 -15 -22 -11 -22 -10 -4 4 21 17 26 19 26 11z m-170 -28 c0 -2 -10 -12 -22
-23 l-23 -19 19 23 c18 21 26 27 26 19z m120 -2 c0 -2 -10 -9 -22 -15 -22 -11
-22 -10 -4 4 21 17 26 19 26 11z m-894 -106 c52 -44 94 -83 94 -85 0 -4 -76
58 -199 162 -2 2 -1 4 3 4 5 0 50 -36 102 -81z m844 77 c0 -2 -12 -11 -27 -20
l-28 -17 24 20 c23 21 31 25 31 17z m-583 -38 c-3 -8 -6 -5 -6 6 -1 11 2 17 5
13 3 -3 4 -12 1 -19z m483 -32 c-64 -59 -200 -176 -200 -172 0 7 202 186 209
186 3 0 -1 -6 -9 -14z m-392 -246 l0 -35 -9 40 c-4 22 -8 49 -7 60 0 16 2 15
8 -5 4 -14 8 -41 8 -60z m-133 30 c21 -22 37 -40 34 -40 -3 0 -23 18 -44 40
-21 22 -37 40 -34 40 3 0 23 -18 44 -40z m295 -10 c-17 -22 -34 -40 -37 -40
-2 0 10 18 27 40 17 22 34 40 37 40 2 0 -10 -18 -27 -40z m-235 -60 c10 -11
16 -20 13 -20 -3 0 -13 9 -23 20 -10 11 -16 20 -13 20 3 0 13 -9 23 -20z"/>
<path d="M2661 8650 c0 -8 4 -24 9 -35 5 -13 9 -14 9 -5 0 8 -4 24 -9 35 -5
13 -9 14 -9 5z"/>
<path d="M2681 8584 c-1 -15 30 -106 35 -101 2 2 -5 28 -15 58 -11 30 -20 49
-20 43z"/>
<path d="M2741 8410 c0 -3 6 -27 14 -55 8 -30 14 -40 14 -25 0 20 -26 97 -28
80z"/>
<path d="M2760 8267 c0 -3 16 -33 35 -67 19 -34 35 -64 35 -67 0 -16 96 -193
116 -213 l25 -25 -23 46 c-13 25 -26 45 -29 43 -3 -2 -32 52 -64 119 -50 105
-95 183 -95 164z"/>
<path d="M2730 8080 c14 -28 60 -85 60 -75 0 6 -45 70 -63 90 -5 6 -4 -1 3
-15z"/>
<path d="M2913 8060 c0 -25 2 -35 4 -22 2 12 2 32 0 45 -2 12 -4 2 -4 -23z"/>
<path d="M2861 7772 c-1 -29 11 -70 36 -128 20 -46 40 -84 44 -84 8 0 -15 69
-37 112 -9 17 -18 40 -20 52 -3 11 -8 37 -13 56 l-9 35 -1 -43z"/>
<path d="M2911 7731 c7 -10 21 -24 33 -31 15 -9 12 -3 -8 19 -34 35 -41 39
-25 12z"/>
<path d="M3220 7546 c0 -11 30 -66 36 -66 2 0 -3 15 -12 33 -19 36 -24 44 -24
33z"/>
<path d="M3275 7540 c3 -5 11 -10 16 -10 6 0 7 5 4 10 -3 6 -11 10 -16 10 -6
0 -7 -4 -4 -10z"/>
<path d="M3520 7308 c0 -9 5 -20 10 -23 6 -4 8 -11 5 -16 -4 -5 1 -9 10 -9 16
0 13 9 -15 50 -8 13 -10 13 -10 -2z"/>
<path d="M3570 7106 c0 -2 7 -7 16 -10 8 -3 12 -2 9 4 -6 10 -25 14 -25 6z"/>
<path d="M3200 6881 c0 -6 4 -13 10 -16 6 -3 7 1 4 9 -7 18 -14 21 -14 7z"/>
<path d="M3375 6460 c3 -5 11 -10 16 -10 6 0 7 5 4 10 -3 6 -11 10 -16 10 -6
0 -7 -4 -4 -10z"/>
<path d="M3946 6338 c10 -14 21 -24 23 -22 3 3 -6 15 -18 27 l-24 22 19 -27z"/>
<path d="M4010 6247 c0 -9 4 -18 9 -21 5 -4 8 1 7 9 -3 21 -16 31 -16 12z"/>
<path d="M3880 6201 c0 -6 4 -13 10 -16 6 -3 7 1 4 9 -7 18 -14 21 -14 7z"/>
<path d="M4073 6193 c11 -12 16 -27 12 -32 -3 -6 -1 -11 4 -11 19 0 12 26 -11
46 l-23 19 18 -22z"/>
<path d="M4120 6133 c0 -4 5 -15 10 -23 9 -13 10 -13 10 0 1 8 8 2 16 -13 9
-16 18 -27 21 -24 8 9 -16 46 -37 57 -11 6 -20 7 -20 3z"/>
<path d="M3840 6116 c0 -2 8 -10 18 -17 15 -13 16 -12 3 4 -13 16 -21 21 -21
13z"/>
<path d="M4232 6056 c6 -14 17 -27 24 -30 9 -3 5 7 -8 24 -26 36 -31 38 -16 6z"/>
<path d="M4200 6056 c0 -2 8 -10 18 -17 15 -13 16 -12 3 4 -13 16 -21 21 -21
13z"/>
<path d="M4290 6001 c0 -7 -4 -9 -10 -6 -13 8 0 -25 19 -47 9 -10 20 -18 25
-18 5 0 0 10 -12 23 -25 26 -30 46 -7 27 8 -7 15 -8 15 -2 0 5 -7 15 -15 22
-11 9 -15 9 -15 1z"/>
<path d="M4240 5954 c0 -5 7 -19 15 -30 8 -10 15 -14 15 -8 0 5 -7 19 -15 30
-8 10 -15 14 -15 8z"/>
<path d="M4350 5895 c0 -10 29 -24 34 -17 3 6 -3 12 -14 15 -11 3 -20 4 -20 2z"/>
<path d="M4300 5878 c0 -9 5 -20 10 -23 13 -8 13 5 0 25 -8 13 -10 13 -10 -2z"/>
<path d="M4400 5875 c-7 -8 -10 -18 -7 -22 4 -3 9 2 13 11 5 14 9 14 22 4 13
-11 14 -10 11 1 -7 21 -24 24 -39 6z"/>
<path d="M3910 5875 c0 -5 5 -17 10 -25 5 -8 10 -10 10 -5 0 6 -5 17 -10 25
-5 8 -10 11 -10 5z"/>
<path d="M4460 5840 c0 -6 7 -10 15 -10 8 0 15 2 15 4 0 2 -7 6 -15 10 -8 3
-15 1 -15 -4z"/>
<path d="M3930 5823 c0 -4 5 -15 10 -23 8 -13 10 -13 10 2 0 9 -4 20 -10 23
-5 3 -10 3 -10 -2z"/>
<path d="M4496 5805 c7 -18 0 -19 -29 -3 -21 11 -21 10 -7 -8 17 -22 31 -32
44 -32 5 0 13 -6 17 -14 7 -10 9 -10 9 0 0 7 -7 15 -15 18 -8 4 -15 11 -15 16
0 6 7 8 15 4 12 -4 13 -2 2 14 -14 23 -29 27 -21 5z"/>
<path d="M4633 5652 c-8 -5 -3 -11 13 -19 26 -12 27 -12 18 11 -7 18 -13 19
-31 8z"/>
<path d="M7810 8156 c0 -2 8 -10 18 -17 15 -13 16 -12 3 4 -13 16 -21 21 -21
13z"/>
<path d="M7781 8124 c0 -11 3 -14 6 -6 3 7 2 16 -1 19 -3 4 -6 -2 -5 -13z"/>
<path d="M7889 8062 c6 -12 49 -50 95 -83 52 -38 92 -76 105 -100 29 -51 37
-50 11 2 -14 27 -44 56 -88 87 -37 26 -82 63 -101 82 -24 24 -31 28 -22 12z"/>
<path d="M8121 7819 c-1 -8 6 -24 15 -35 15 -19 15 -19 6 1 -5 11 -12 27 -15
35 -5 13 -6 13 -6 -1z"/>
<path d="M8165 7740 c10 -11 20 -20 23 -20 3 0 -3 9 -13 20 -10 11 -20 20 -23
20 -3 0 3 -9 13 -20z"/>
<path d="M7724 7665 c6 -19 14 -35 18 -35 11 0 10 7 -7 40 -21 40 -24 38 -11
-5z"/>
<path d="M7440 7428 c41 -45 50 -53 50 -45 0 2 -21 23 -47 47 l-48 45 45 -47z"/>
<path d="M7300 7405 c0 -5 5 -17 10 -25 5 -8 10 -10 10 -5 0 6 -5 17 -10 25
-5 8 -10 11 -10 5z"/>
<path d="M7680 7100 c0 -5 5 -10 11 -10 5 0 7 5 4 10 -3 6 -8 10 -11 10 -2 0
-4 -4 -4 -10z"/>
<path d="M7712 6748 c2 -12 10 -23 18 -26 12 -4 13 -2 3 9 -18 18 -16 30 4 22
11 -4 14 -3 9 5 -13 21 -38 14 -34 -10z"/>
<path d="M7896 6638 c13 -23 37 -48 46 -48 5 0 0 14 -12 30 -20 29 -49 43 -34
18z"/>
<path d="M7957 6586 c-4 -9 -3 -15 1 -15 22 4 33 -3 28 -16 -3 -8 -1 -15 4
-15 17 0 11 26 -9 44 -16 15 -19 15 -24 2z"/>
<path d="M8020 6541 c0 -6 4 -13 10 -16 6 -3 7 1 4 9 -7 18 -14 21 -14 7z"/>
<path d="M8110 6432 c0 -4 10 -13 23 -21 22 -14 22 -14 3 8 -20 22 -26 25 -26
13z"/>
<path d="M3920 6721 c0 -5 5 -13 10 -16 6 -3 10 -2 10 4 0 5 -4 13 -10 16 -5
3 -10 2 -10 -4z"/>
<path d="M7471 6924 c0 -11 3 -14 6 -6 3 7 2 16 -1 19 -3 4 -6 -2 -5 -13z"/>
<path d="M7682 6324 c10 -10 20 -16 22 -13 3 3 -5 11 -17 18 -21 13 -21 12 -5
-5z"/>
<path d="M7740 6276 c0 -2 7 -7 16 -10 8 -3 12 -2 9 4 -6 10 -25 14 -25 6z"/>
<path d="M7672 6248 c2 -6 10 -14 16 -16 7 -2 10 2 6 12 -7 18 -28 22 -22 4z"/>
<path d="M7807 6235 c10 -13 22 -25 27 -25 5 0 -1 11 -14 25 -30 32 -36 32
-13 0z"/>
<path d="M3816 6755 c24 -39 24 -40 24 -28 0 6 -9 21 -21 34 l-20 24 17 -30z"/>
<path d="M4270 6261 c0 -6 5 -13 10 -16 6 -4 8 -10 5 -15 -3 -4 3 -7 12 -6 22
3 30 26 9 26 -9 0 -16 5 -16 10 0 6 -4 10 -10 10 -5 0 -10 -4 -10 -9z"/>
<path d="M7350 5964 c0 -5 7 -18 15 -28 12 -16 15 -17 15 -4 0 8 -7 21 -15 28
-8 7 -15 9 -15 4z"/>
<path d="M7190 5900 c6 -11 13 -20 16 -20 2 0 0 9 -6 20 -6 11 -13 20 -16 20
-2 0 0 -9 6 -20z"/>
<path d="M7337 5785 c5 -11 18 -39 29 -62 10 -24 22 -43 27 -43 10 0 10 2 -19
56 -26 50 -55 88 -37 49z"/>
<path d="M7193 5588 c-1 -11 1 -16 5 -12 4 5 11 12 15 15 5 3 2 9 -5 12 -9 3
-14 -3 -15 -15z"/>
<path d="M4420 6122 c12 -18 25 -31 28 -27 3 3 -7 18 -23 33 l-28 27 23 -33z"/>
<path d="M4500 5990 c0 -8 5 -22 10 -30 9 -13 10 -13 10 0 0 8 -5 22 -10 30
-9 13 -10 13 -10 0z"/>
<path d="M4836 5675 c4 -8 10 -15 15 -15 4 0 6 7 3 15 -4 8 -10 15 -15 15 -4
0 -6 -7 -3 -15z"/>
<path d="M6492 5520 c-7 -11 -8 -20 -3 -20 9 0 24 30 18 36 -1 2 -8 -6 -15
-16z"/>
<path d="M7445 5541 c-3 -5 -2 -12 3 -15 5 -3 9 1 9 9 0 17 -3 19 -12 6z"/>
<path d="M7470 5425 c0 -5 5 -17 10 -25 5 -8 10 -10 10 -5 0 6 -5 17 -10 25
-5 8 -10 11 -10 5z"/>
<path d="M7562 5416 c7 -8 15 -12 17 -11 5 6 -10 25 -20 25 -5 0 -4 -6 3 -14z"/>
<path d="M7410 5376 c0 -8 4 -17 9 -20 5 -4 7 3 4 14 -6 23 -13 26 -13 6z"/>
<path d="M7396 5333 c-9 -22 19 -49 68 -66 22 -8 48 -18 56 -21 19 -8 26 37 9
62 -8 14 -9 12 -6 -11 3 -22 1 -27 -10 -23 -8 3 -21 6 -29 6 -8 0 -14 5 -14
11 0 6 7 9 15 5 8 -3 15 -1 15 4 0 6 -5 10 -11 10 -6 0 -18 7 -27 17 -15 15
-17 14 -23 -8 -6 -22 -7 -22 -8 -3 -1 27 -27 39 -35 17z"/>
<path d="M7610 5250 c0 -6 7 -13 15 -17 24 -9 27 1 5 15 -13 8 -20 8 -20 2z"/>
<path d="M7700 5171 c0 -6 4 -13 10 -16 6 -3 7 1 4 9 -7 18 -14 21 -14 7z"/>
<path d="M7780 5170 c0 -5 5 -10 10 -10 6 0 10 5 10 10 0 6 -4 10 -10 10 -5 0
-10 -4 -10 -10z"/>
<path d="M6339 5061 c-13 -11 -19 -20 -14 -20 14 0 50 28 43 34 -3 3 -16 -3
-29 -14z"/>
<path d="M5897 4178 c-2 -7 0 -26 4 -42 5 -16 6 -34 3 -40 -8 -16 26 26 37 47
8 14 6 17 -12 17 -18 0 -19 2 -9 15 10 12 10 15 -3 15 -8 0 -17 -6 -20 -12z"/>
<path d="M5467 3993 c-3 -5 6 -8 19 -8 13 0 24 3 24 8 0 4 -9 7 -19 7 -11 0
-22 -3 -24 -7z"/>
<path d="M5546 3985 c4 -8 11 -15 16 -15 6 0 5 6 -2 15 -7 8 -14 15 -16 15 -2
0 -1 -7 2 -15z"/>
<path d="M5415 3970 c-3 -5 -1 -10 4 -10 6 0 11 5 11 10 0 6 -2 10 -4 10 -3 0
-8 -4 -11 -10z"/>
<path d="M5370 3890 c0 -5 5 -10 11 -10 5 0 7 5 4 10 -3 6 -8 10 -11 10 -2 0
-4 -4 -4 -10z"/>
<path d="M5485 3890 c19 -8 19 -8 -5 -18 -27 -12 -4 -17 24 -6 13 5 14 9 5 20
-6 8 -19 14 -28 13 -12 0 -11 -2 4 -9z"/>
<path d="M4750 3720 c0 -5 9 -12 20 -15 11 -4 17 -11 14 -17 -4 -7 -2 -8 4 -4
6 4 9 13 6 20 -6 16 -44 29 -44 16z"/>
<path d="M4657 3708 c-7 -5 4 -6 23 -3 19 3 36 8 39 11 8 7 -49 0 -62 -8z"/>
<path d="M4500 3700 c0 -6 7 -10 15 -10 8 0 15 2 15 4 0 2 -7 6 -15 10 -8 3
-15 1 -15 -4z"/>
<path d="M4556 3702 c-3 -6 -1 -14 5 -17 14 -9 20 -2 10 14 -6 8 -11 9 -15 3z"/>
<path d="M4587 3699 c7 -7 15 -10 18 -7 3 3 -2 9 -12 12 -14 6 -15 5 -6 -5z"/>
<path d="M4160 3690 c10 -7 -6 -8 -50 -5 -45 3 -54 2 -30 -3 20 -5 41 -11 48
-16 13 -8 52 10 52 24 0 6 -8 10 -17 10 -15 0 -16 -2 -3 -10z"/>
<path d="M4190 3690 c0 -5 7 -7 15 -4 8 4 15 8 15 10 0 2 -7 4 -15 4 -8 0 -15
-4 -15 -10z"/>
<path d="M4365 3690 c3 -5 8 -10 11 -10 2 0 4 5 4 10 0 6 -5 10 -11 10 -5 0
-7 -4 -4 -10z"/>
<path d="M4700 3690 c0 -5 4 -10 9 -10 6 0 13 5 16 10 3 6 -1 10 -9 10 -9 0
-16 -4 -16 -10z"/>
<path d="M3942 3671 c-11 -7 -11 -9 2 -14 8 -3 18 -2 21 4 4 5 11 7 16 4 5 -4
9 -1 9 4 0 13 -30 14 -48 2z"/>
<path d="M4010 3676 c0 -2 7 -6 15 -10 8 -3 15 -1 15 4 0 6 -7 10 -15 10 -8 0
-15 -2 -15 -4z"/>
<path d="M3828 3663 c7 -3 16 -2 19 1 4 3 -2 6 -13 5 -11 0 -14 -3 -6 -6z"/>
<path d="M4190 3660 c0 -5 7 -7 15 -4 8 4 15 8 15 10 0 2 -7 4 -15 4 -8 0 -15
-4 -15 -10z"/>
<path d="M4055 3650 c3 -5 11 -10 16 -10 6 0 7 5 4 10 -3 6 -11 10 -16 10 -6
0 -7 -4 -4 -10z"/>
<path d="M4220 3640 c-9 -6 -10 -10 -3 -10 6 0 15 5 18 10 8 12 4 12 -15 0z"/>
<path d="M5248 3633 c6 -2 18 -2 25 0 6 3 1 5 -13 5 -14 0 -19 -2 -12 -5z"/>
<path d="M3798 3623 c7 -3 16 -2 19 1 4 3 -2 6 -13 5 -11 0 -14 -3 -6 -6z"/>
<path d="M3860 3609 c0 -5 5 -7 10 -4 6 3 10 8 10 11 0 2 -4 4 -10 4 -5 0 -10
-5 -10 -11z"/>
<path d="M4530 3610 l-55 -7 50 0 c28 0 82 3 120 7 l70 7 -65 0 c-36 0 -90 -3
-120 -7z"/>
<path d="M5007 3613 c18 -2 50 -2 70 0 21 2 7 4 -32 4 -38 0 -55 -2 -38 -4z"/>
<path d="M4785 3600 l-70 -6 70 -1 c39 -1 97 3 130 7 l60 7 -60 0 c-33 0 -91
-3 -130 -7z"/>
<path d="M4335 3589 c-38 -5 -74 -11 -80 -13 -21 -9 53 -4 135 8 96 15 53 18
-55 5z"/>
<path d="M3715 3580 c3 -5 8 -10 11 -10 2 0 4 5 4 10 0 6 -5 10 -11 10 -5 0
-7 -4 -4 -10z"/>
<path d="M4570 3583 c-72 -6 -250 -36 -246 -40 2 -3 55 2 118 11 62 9 149 20
193 25 67 7 71 8 25 8 -30 0 -71 -2 -90 -4z"/>
<path d="M3960 3526 c-100 -34 -155 -59 -165 -76 -3 -5 10 0 30 12 20 11 89
38 153 59 65 20 108 37 97 38 -11 0 -63 -15 -115 -33z"/>
<path d="M4618 3553 c6 -2 18 -2 25 0 6 3 1 5 -13 5 -14 0 -19 -2 -12 -5z"/>
<path d="M4047 3524 c-126 -34 -267 -98 -267 -121 0 -4 5 -2 12 5 7 7 16 12
20 12 5 0 -10 -23 -33 -52 -38 -49 -40 -55 -34 -97 9 -61 62 -140 121 -179 63
-42 79 -41 29 2 -22 19 -43 32 -46 30 -4 -2 -15 6 -25 19 l-19 22 24 -20 c17
-15 23 -16 19 -5 -2 8 -14 19 -26 25 -27 12 -62 84 -64 129 -1 42 31 87 99
135 47 34 131 67 268 105 28 8 41 14 30 14 -11 0 -59 -10 -108 -24z"/>
<path d="M4558 3543 c6 -2 18 -2 25 0 6 3 1 5 -13 5 -14 0 -19 -2 -12 -5z"/>
<path d="M4278 3533 c6 -2 18 -2 25 0 6 3 1 5 -13 5 -14 0 -19 -2 -12 -5z"/>
<path d="M4508 3533 c7 -3 16 -2 19 1 4 3 -2 6 -13 5 -11 0 -14 -3 -6 -6z"/>
<path d="M4548 3513 c7 -3 16 -2 19 1 4 3 -2 6 -13 5 -11 0 -14 -3 -6 -6z"/>
<path d="M4470 3500 c-20 -6 -21 -8 -5 -8 11 0 31 4 45 8 20 6 21 8 5 8 -11 0
-31 -4 -45 -8z"/>
<path d="M4628 3503 c7 -3 16 -2 19 1 4 3 -2 6 -13 5 -11 0 -14 -3 -6 -6z"/>
<path d="M4588 3493 c7 -3 16 -2 19 1 4 3 -2 6 -13 5 -11 0 -14 -3 -6 -6z"/>
<path d="M4548 3483 c7 -3 16 -2 19 1 4 3 -2 6 -13 5 -11 0 -14 -3 -6 -6z"/>
<path d="M4818 3483 c6 -2 18 -2 25 0 6 3 1 5 -13 5 -14 0 -19 -2 -12 -5z"/>
<path d="M4470 3465 c-19 -7 -28 -13 -20 -13 8 0 31 6 50 13 19 7 28 13 20 13
-8 0 -31 -6 -50 -13z"/>
<path d="M4768 3473 c7 -3 16 -2 19 1 4 3 -2 6 -13 5 -11 0 -14 -3 -6 -6z"/>
<path d="M4040 3437 c-47 -23 -64 -37 -62 -49 2 -10 -3 -18 -11 -18 -7 0 -20
-24 -30 -54 -13 -44 -14 -62 -5 -88 13 -39 28 -59 28 -37 0 8 -4 19 -9 24 -14
16 -23 65 -11 65 5 0 10 7 10 15 0 40 61 110 123 141 43 22 58 35 40 33 -5 0
-37 -15 -73 -32z m-35 -37 c-3 -5 -11 -10 -16 -10 -6 0 -7 5 -4 10 3 6 11 10
16 10 6 0 7 -4 4 -10z"/>
<path d="M4728 3463 c7 -3 16 -2 19 1 4 3 -2 6 -13 5 -11 0 -14 -3 -6 -6z"/>
<path d="M4908 3463 c7 -3 16 -2 19 1 4 3 -2 6 -13 5 -11 0 -14 -3 -6 -6z"/>
<path d="M4300 3431 c-25 -15 -52 -36 -60 -47 -12 -16 -10 -16 10 2 14 12 45
33 70 47 25 15 41 27 35 27 -5 0 -30 -13 -55 -29z"/>
<path d="M3735 3440 c-3 -6 1 -7 9 -4 18 7 21 14 7 14 -6 0 -13 -4 -16 -10z"/>
<path d="M4356 3425 c-33 -13 -69 -34 -80 -46 -12 -12 -15 -19 -8 -15 16 9 15
6 -8 -45 -11 -24 -19 -57 -19 -74 1 -25 2 -23 9 12 17 82 42 114 131 163 65
36 55 38 -25 5z"/>
<path d="M4625 3430 c-3 -6 1 -7 9 -4 18 7 21 14 7 14 -6 0 -13 -4 -16 -10z"/>
<path d="M3668 3390 c-21 -23 -38 -46 -38 -52 0 -6 1 -9 3 -7 1 2 22 26 47 52
24 26 40 47 36 47 -5 0 -26 -18 -48 -40z"/>
<path d="M4920 3420 c-20 -6 -21 -8 -5 -8 11 0 31 4 45 8 20 6 21 8 5 8 -11 0
-31 -4 -45 -8z"/>
<path d="M5118 3423 c12 -2 32 -2 45 0 12 2 2 4 -23 4 -25 0 -35 -2 -22 -4z"/>
<path d="M5053 3413 c9 -2 23 -2 30 0 6 3 -1 5 -18 5 -16 0 -22 -2 -12 -5z"/>
<path d="M4985 3400 c-13 -5 -14 -9 -5 -9 8 0 24 4 35 9 13 5 14 9 5 9 -8 0
-24 -4 -35 -9z"/>
<path d="M4536 3381 c-31 -21 -55 -56 -55 -81 0 -8 7 0 16 18 9 19 32 44 52
58 20 13 31 24 26 24 -6 0 -23 -9 -39 -19z"/>
<path d="M4808 3380 c-20 -11 -39 -24 -43 -29 -4 -8 77 32 94 46 13 10 -19 -1
-51 -17z"/>
<path d="M5098 3393 c7 -3 16 -2 19 1 4 3 -2 6 -13 5 -11 0 -14 -3 -6 -6z"/>
<path d="M4335 3370 c-3 -5 -1 -10 4 -10 6 0 11 5 11 10 0 6 -2 10 -4 10 -3 0
-8 -4 -11 -10z"/>
<path d="M4394 3358 l-19 -23 23 19 c12 11 22 21 22 23 0 8 -8 2 -26 -19z"/>
<path d="M4844 3318 c-19 -23 -19 -23 2 -5 29 24 41 21 18 -5 l-19 -23 22 19
c13 10 20 23 17 27 -8 14 -20 10 -40 -13z"/>
<path d="M4106 3314 c-11 -29 -6 -96 10 -129 8 -18 31 -51 50 -72 32 -35 31
-33 -8 25 -40 59 -43 69 -43 128 0 35 -1 64 -1 64 -1 0 -5 -7 -8 -16z"/>
<path d="M4286 3295 c-9 -26 -7 -32 5 -12 6 10 9 21 6 23 -2 3 -7 -2 -11 -11z"/>
<path d="M3862 3260 c0 -19 2 -27 5 -17 2 9 2 25 0 35 -3 9 -5 1 -5 -18z"/>
<path d="M4913 3276 c1 -5 -4 -10 -12 -11 -17 0 -26 -21 -12 -29 5 -4 19 7 30
22 15 22 16 29 6 29 -8 0 -13 -5 -12 -11z"/>
<path d="M4481 3230 c-1 -24 32 -90 45 -90 4 0 1 7 -6 15 -6 8 -18 34 -25 57
-10 32 -14 37 -14 18z"/>
<path d="M4901 3204 c0 -11 6 -29 14 -40 8 -10 15 -14 15 -8 0 5 -4 14 -9 20
-5 5 -11 18 -14 29 -5 20 -5 19 -6 -1z"/>
<path d="M4881 3192 c-2 -23 27 -66 61 -93 41 -32 98 -62 105 -55 3 2 -18 16
-46 31 -32 16 -49 30 -45 37 4 6 3 8 -3 5 -12 -8 -48 29 -62 63 -5 14 -10 19
-10 12z"/>
<path d="M4451 3163 c7 -12 15 -20 18 -17 3 2 -3 12 -13 22 -17 16 -18 16 -5
-5z"/>
<path d="M4200 3118 c41 -45 50 -53 50 -45 0 2 -21 23 -47 47 l-48 45 45 -47z"/>
<path d="M4265 3121 c20 -23 182 -107 191 -99 2 3 -25 17 -61 33 -36 15 -84
41 -108 58 -31 22 -37 24 -22 8z"/>
<path d="M4545 3110 c10 -11 20 -20 23 -20 3 0 -3 9 -13 20 -10 11 -20 20 -23
20 -3 0 3 -9 13 -20z"/>
<path d="M4635 3100 c10 -11 20 -20 23 -20 3 0 -3 9 -13 20 -10 11 -20 20 -23
20 -3 0 3 -9 13 -20z"/>
<path d="M4425 3099 c8 -18 44 -44 75 -53 19 -6 17 -3 -10 14 -19 12 -43 29
-53 38 -14 13 -17 13 -12 1z"/>
<path d="M4211 3067 c2 -1 15 -11 29 -22 l25 -20 -19 23 c-11 12 -24 22 -29
22 -6 0 -8 -1 -6 -3z"/>
<path d="M4597 3039 c7 -7 15 -10 18 -7 3 3 -2 9 -12 12 -14 6 -15 5 -6 -5z"/>
<path d="M5086 3025 c17 -7 44 -16 60 -20 25 -4 24 -3 -6 8 -19 8 -46 17 -60
20 -19 5 -17 3 6 -8z"/>
<path d="M4660 3011 c39 -23 181 -71 208 -71 9 0 -32 17 -93 38 -60 21 -119
42 -130 46 -11 4 -4 -2 15 -13z"/>
<path d="M5055 3000 c11 -5 27 -9 35 -9 9 0 8 4 -5 9 -11 5 -27 9 -35 9 -9 0
-8 -4 5 -9z"/>
<path d="M5148 2973 c7 -3 16 -2 19 1 4 3 -2 6 -13 5 -11 0 -14 -3 -6 -6z"/>
<path d="M5188 2963 c7 -3 16 -2 19 1 4 3 -2 6 -13 5 -11 0 -14 -3 -6 -6z"/>
<path d="M4541 2956 c2 -2 65 -21 139 -41 74 -21 142 -40 150 -42 13 -4 13 -3
0 5 -14 9 -267 82 -285 82 -5 0 -6 -2 -4 -4z"/>
<path d="M5360 2940 c36 -11 99 -27 140 -35 73 -15 371 -97 638 -176 73 -21
136 -38 140 -38 20 3 43 -2 39 -8 -3 -5 7 -9 21 -10 41 -2 209 -91 215 -114 3
-10 11 -19 19 -19 10 0 9 3 -2 11 -13 9 -13 10 0 6 8 -2 15 -8 15 -13 1 -5 33
-41 72 -79 68 -68 71 -74 78 -129 9 -71 4 -83 -75 -168 -34 -38 -59 -68 -56
-68 15 0 105 62 127 87 45 53 51 62 59 98 10 44 -2 90 -36 140 -14 21 -23 39
-21 42 7 6 53 -58 62 -84 6 -22 25 -32 25 -15 0 23 -63 103 -102 129 -72 50
-191 120 -233 138 -86 36 -224 83 -305 104 -47 12 -116 31 -155 41 -258 73
-418 115 -540 141 -181 40 -204 44 -125 19z m1360 -460 c0 -5 -2 -10 -4 -10
-3 0 -8 5 -11 10 -3 6 -1 10 4 10 6 0 11 -4 11 -10z"/>
<path d="M5271 2906 c2 -2 27 -6 54 -9 32 -4 43 -3 30 3 -19 8 -93 14 -84 6z"/>
<path d="M5385 2885 c34 -13 166 -42 159 -35 -11 10 -129 40 -152 39 -9 0 -12
-2 -7 -4z"/>
<path d="M4900 2870 c8 -5 24 -10 34 -10 26 0 18 6 -19 14 -22 5 -26 4 -15 -4z"/>
<path d="M5218 2858 c5 -5 16 -8 23 -6 8 3 3 7 -10 11 -17 4 -21 3 -13 -5z"/>
<path d="M4446 2851 c25 -24 575 -176 631 -174 13 1 21 -3 18 -7 -3 -5 5 -6
17 -2 17 4 7 11 -47 29 -39 13 -80 21 -92 18 -13 -3 -23 -1 -23 3 0 8 -85 28
-172 39 -23 3 -35 9 -31 16 4 6 -2 8 -15 5 -12 -4 -22 -2 -22 4 0 5 -4 6 -10
3 -5 -3 -19 -1 -31 6 -18 9 -215 69 -228 69 -3 0 -1 -4 5 -9z"/>
<path d="M5568 2843 c7 -3 16 -2 19 1 4 3 -2 6 -13 5 -11 0 -14 -3 -6 -6z"/>
<path d="M5365 2820 c11 -5 27 -9 35 -9 9 0 8 4 -5 9 -11 5 -27 9 -35 9 -9 0
-8 -4 5 -9z"/>
<path d="M5018 2813 c7 -3 16 -2 19 1 4 3 -2 6 -13 5 -11 0 -14 -3 -6 -6z"/>
<path d="M5475 2810 c11 -5 27 -9 35 -9 9 0 8 4 -5 9 -11 5 -27 9 -35 9 -9 0
-8 -4 5 -9z"/>
<path d="M5555 2785 c17 -7 64 -21 105 -30 298 -68 520 -134 625 -188 84 -43
168 -98 161 -104 -3 -4 -14 1 -23 9 -54 48 -290 144 -509 207 -126 37 -93 21
71 -34 267 -90 380 -157 468 -280 50 -70 24 -194 -55 -264 -126 -112 -128
-116 -36 -56 28 19 55 32 61 28 5 -3 29 14 53 38 62 61 90 146 74 224 -11 55
-31 71 -23 18 4 -22 2 -25 -6 -13 -6 8 -11 22 -11 31 0 8 -11 26 -25 39 -14
13 -25 31 -25 40 0 23 -66 83 -131 119 -84 47 -262 105 -494 160 -116 28 -226
55 -245 61 -49 14 -71 11 -35 -5z m982 -497 c-3 -8 -6 -5 -6 6 -1 11 2 17 5
13 3 -3 4 -12 1 -19z"/>
<path d="M5490 2781 c8 -5 29 -11 45 -14 l30 -6 -30 14 c-34 16 -72 21 -45 6z"/>
<path d="M5738 2773 c7 -3 16 -2 19 1 4 3 -2 6 -13 5 -11 0 -14 -3 -6 -6z"/>
<path d="M5585 2750 c11 -5 27 -9 35 -9 9 0 8 4 -5 9 -11 5 -27 9 -35 9 -9 0
-8 -4 5 -9z"/>
<path d="M5808 2753 c6 -2 18 -2 25 0 6 3 1 5 -13 5 -14 0 -19 -2 -12 -5z"/>
<path d="M5858 2743 c6 -2 18 -2 25 0 6 3 1 5 -13 5 -14 0 -19 -2 -12 -5z"/>
<path d="M5908 2733 c6 -2 18 -2 25 0 6 3 1 5 -13 5 -14 0 -19 -2 -12 -5z"/>
<path d="M5958 2723 c7 -3 16 -2 19 1 4 3 -2 6 -13 5 -11 0 -14 -3 -6 -6z"/>
<path d="M6088 2683 c7 -3 16 -2 19 1 4 3 -2 6 -13 5 -11 0 -14 -3 -6 -6z"/>
<path d="M5148 2663 c6 -2 18 -2 25 0 6 3 1 5 -13 5 -14 0 -19 -2 -12 -5z"/>
<path d="M6220 2640 c8 -5 20 -10 25 -10 6 0 3 5 -5 10 -8 5 -19 10 -25 10 -5
0 -3 -5 5 -10z"/>
<path d="M6300 2605 c25 -13 50 -24 55 -24 6 0 -10 11 -35 24 -25 13 -49 24
-55 24 -5 0 10 -11 35 -24z"/>
<path d="M6470 2473 c0 -6 8 -17 18 -24 16 -13 16 -13 2 6 -8 11 -16 22 -17
24 -2 2 -3 0 -3 -6z"/>
<path d="M6820 2410 c6 -11 13 -20 16 -20 2 0 0 9 -6 20 -6 11 -13 20 -16 20
-2 0 0 -9 6 -20z"/>
<path d="M6822 2330 c0 -14 2 -19 5 -12 2 6 2 18 0 25 -3 6 -5 1 -5 -13z"/>
<path d="M6582 2260 c0 -14 2 -19 5 -12 2 6 2 18 0 25 -3 6 -5 1 -5 -13z"/>
</g>
</svg>
